<svg width="111" height="168" viewBox="0 0 111 168" fill="none" xmlns="http://www.w3.org/2000/svg">
<path d="M107.5 17V73.1829C107.501 78.676 106.414 84.1154 104.302 89.1904C102.189 94.2653 99.0916 98.8764 95.1868 102.76C91.282 106.643 86.6462 109.723 81.5444 111.823C76.4426 113.924 70.9748 115.003 65.4535 115H45.537C40.0161 115.003 34.5488 113.924 29.4475 111.823C24.3463 109.723 19.7111 106.643 15.8071 102.759C11.903 98.8757 8.80662 94.2646 6.69489 89.1897C4.58316 84.1148 3.49751 78.6755 3.5 73.1829V17L55.5024 81.1031L107.5 17Z" fill="#9B74BA"/>
<path d="M55.5 81.2674L42.2815 97.5937C33.846 108.017 17.583 107.358 10.2542 96.125C5.83445 89.3396 3.48785 81.4188 3.50005 73.327V17L55.5 81.2674Z" fill="#5C0099"/>
<path d="M58.5 3.4125C58.5 1.52782 57.1569 0 55.5 0C53.8432 0 52.5 1.52782 52.5 3.4125V27.5875C52.5 29.4722 53.8432 31 55.5 31C57.1569 31 58.5 29.4722 58.5 27.5875V3.4125Z" fill="#FFA500"/>
<path d="M39.3678 39.2046C40.5622 40.6813 42.7276 40.91 44.2042 39.7155C45.6809 38.521 45.9096 36.3557 44.7151 34.879L30.2447 16.9904C29.0502 15.5138 26.8849 15.2851 25.4082 16.4795C23.9316 17.674 23.7029 19.8394 24.8973 21.316L39.3678 39.2046Z" fill="#FFA500"/>
<path d="M86.1543 21.3512C87.3488 19.8746 87.1201 17.7092 85.6434 16.5147C84.1668 15.3202 82.0014 15.549 80.8069 17.0256L66.3365 34.9142C65.142 36.3909 65.3708 38.5562 66.8474 39.7507C68.3241 40.9452 70.4894 40.7165 71.6839 39.2398L86.1543 21.3512Z" fill="#FFA500"/>
<path d="M0 141.412H4.82591C4.00807 139.976 3.6577 137.901 3.6577 137.901C2.83986 132.755 6.38414 131 10.6651 131C12.3792 131 14.4814 131.439 16 132.277V135.986C15.1047 135.508 13.8194 135.189 12.6908 135.189H12.3866C7.90549 135.431 8.95661 141.412 8.95661 141.412H14.6806V145.641H8.95661V161H3.50464V145.641H0.000922931L0 141.412Z" fill="#2E2733"/>
<path d="M18 131H23V161H18V131Z" fill="#2E2733"/>
<path d="M36.0207 140C41.7487 140 47 143.913 47 150.48C47 157.091 41.7487 161 36.0207 161C30.2928 161 25 157.087 25 150.48C25.0009 143.913 30.2918 140 36.0207 140ZM30.4906 150.478C30.4906 154.751 33.0762 157.048 36.0207 157.048C38.9247 157.048 41.5499 154.751 41.5499 150.478C41.5499 146.246 38.9247 143.948 36.0207 143.948C33.0762 143.948 30.4906 146.246 30.4906 150.478Z" fill="#2E2733"/>
<path d="M48.0058 140.708H51.689L52.9995 146.949H53.3271C54.1868 141.077 57.3795 140 60.4492 140C60.9813 140 61.5154 140.041 62 140.082V145.91C61.5086 145.538 60.2398 145.127 58.848 145.127C56.4742 145.127 53.7312 146.326 53.7312 150.914V161H48L48.0058 140.708Z" fill="#2E2733"/>
<path d="M63 145.602V141H70V161H64.9086V145.602H63Z" fill="#2E2733"/>
<path d="M66.4799 132C68.422 132 70 133.578 70 135.48C69.9992 136.413 69.6281 137.308 68.9681 137.968C68.3082 138.628 67.4132 138.999 66.4799 139C64.578 139 63 137.422 63 135.48C63.0068 134.559 63.3756 133.678 64.0267 133.027C64.6779 132.376 65.559 132.007 66.4799 132Z" fill="#2E2733"/>
<path d="M72 141.412H77.1296C76.2608 139.976 75.8886 137.901 75.8886 137.901C75.0198 132.755 78.7849 131 83.3327 131C85.1526 131 87.3868 131.439 89 132.277V135.986C88.0489 135.508 86.6835 135.189 85.4836 135.189H85.1526C80.3981 135.431 81.5167 141.412 81.5167 141.412H87.5974V145.641H81.5167V161H75.725V145.641H72.0029L72 141.412Z" fill="#2E2733"/>
<path d="M86 161.485H88.1471C88.6729 163.212 90.4129 164.978 93.0015 164.978C95.751 164.978 97.8541 162.741 98.5014 160.269H94.9427L87.743 141H93.5675L98.8654 156.462H99.755L105.175 141H111L103.635 160.112C101.895 164.625 98.4976 168 93.3204 168C89.5597 167.725 86.4041 164.978 86 161.485Z" fill="#2E2733"/>
</svg>
