<svg width="105" height="115" viewBox="0 0 105 115" fill="none" xmlns="http://www.w3.org/2000/svg">
<path d="M104.5 17V73.1829C104.501 78.676 103.414 84.1154 101.302 89.1904C99.1889 94.2653 96.0916 98.8764 92.1868 102.76C88.282 106.643 83.6462 109.723 78.5444 111.823C73.4426 113.924 67.9748 115.003 62.4535 115H42.537C37.0161 115.003 31.5488 113.924 26.4475 111.823C21.3463 109.723 16.7111 106.643 12.8071 102.759C8.90302 98.8757 5.80662 94.2646 3.69489 89.1897C1.58316 84.1148 0.497507 78.6755 0.500004 73.1829V17L52.5024 81.1031L104.5 17Z" fill="#9B74BA"/>
<path d="M52.5 81.2674L39.2815 97.5937C30.846 108.017 14.583 107.358 7.25415 96.125C2.83445 89.3396 0.487845 81.4188 0.500047 73.327V17L52.5 81.2674Z" fill="#5C0099"/>
<path d="M55.5 3.4125C55.5 1.52782 54.1569 0 52.5 0C50.8432 0 49.5 1.52782 49.5 3.4125V27.5875C49.5 29.4722 50.8432 31 52.5 31C54.1569 31 55.5 29.4722 55.5 27.5875V3.4125Z" fill="#FFA500"/>
<path d="M36.3678 39.2046C37.5622 40.6813 39.7276 40.91 41.2042 39.7155C42.6809 38.521 42.9096 36.3557 41.7151 34.879L27.2447 16.9904C26.0502 15.5138 23.8849 15.2851 22.4082 16.4795C20.9316 17.674 20.7029 19.8394 21.8973 21.316L36.3678 39.2046Z" fill="#FFA500"/>
<path d="M83.1543 21.3512C84.3488 19.8746 84.1201 17.7092 82.6434 16.5147C81.1668 15.3202 79.0014 15.549 77.8069 17.0256L63.3365 34.9142C62.142 36.3909 62.3708 38.5562 63.8474 39.7507C65.3241 40.9452 67.4894 40.7165 68.6839 39.2398L83.1543 21.3512Z" fill="#FFA500"/>
</svg>
