<svg width="190" height="190" viewBox="0 0 190 190" fill="none" xmlns="http://www.w3.org/2000/svg">
<path d="M74.2102 19.5242C74.4078 18.1068 72.4014 16.9402 70.8966 16.8186C70.1784 16.7578 69.4336 16.868 68.7534 16.6324C67.2828 16.1194 66.6938 14.2156 65.2536 13.5924C64.1782 13.1402 62.9432 13.543 61.902 14.0674C60.8608 14.5918 59.8272 15.253 58.6644 15.329C57.6536 15.3936 56.5516 15.0174 55.6662 15.5114C55.005 15.8914 54.6592 16.6514 54.0512 17.0884C53.4185 17.4797 52.6859 17.679 51.9422 17.6622C51.2007 17.6421 50.462 17.762 49.7648 18.0156C49.0922 18.3234 48.5374 19.0378 48.678 19.7636L74.2102 19.5242Z" fill="#F5F5F5"/>
<path d="M175.104 103.394C175.431 101.034 172.098 99.0925 169.594 98.8911C168.401 98.7923 167.162 98.9747 166.03 98.5795C163.582 97.7283 162.61 94.5629 160.212 93.5521C158.426 92.7921 156.366 93.4723 154.633 94.3425C152.901 95.2127 151.191 96.3109 149.253 96.4363C147.569 96.5427 145.741 95.9195 144.267 96.7441C143.169 97.3559 142.595 98.6213 141.584 99.3661C140.573 100.111 139.304 100.251 138.073 100.32C136.842 100.388 135.573 100.396 134.455 100.909C133.338 101.422 132.411 102.604 132.643 103.812L175.104 103.394Z" fill="#EBEBEB"/>
<path d="M48.412 45.8012C48.659 43.9962 46.1092 42.5104 44.194 42.3546C43.282 42.2824 42.3358 42.423 41.4694 42.119C39.596 41.4654 38.8474 39.0448 37.0158 38.2734C35.6516 37.6958 34.0746 38.2126 32.7484 38.8776C31.4222 39.5426 30.115 40.3976 28.633 40.4812C27.3448 40.561 25.9464 40.1012 24.833 40.713C23.9932 41.1842 23.5562 42.1494 22.781 42.7194C22.0058 43.2894 21.0368 43.3996 20.0944 43.449C19.152 43.4984 18.1944 43.5098 17.328 43.9012C16.4616 44.2926 15.7662 45.197 15.941 46.1204L48.412 45.8012Z" fill="#F5F5F5"/>
<path d="M149.291 144.164L140.836 180.872L144.411 180.861L152.882 144.51L149.291 144.164Z" fill="#E0E0E0"/>
<path d="M164.711 144.164L173.196 180.872H176.594L168.386 144.164H164.711Z" fill="#E0E0E0"/>
<path d="M143.583 116.595L148.398 141.869H153.866L148.724 116.595H143.583Z" fill="#E0E0E0"/>
<path d="M59.7436 144.164L52.8466 180.872H56.3578L63.5626 144.164H59.7436Z" fill="#E0E0E0"/>
<path d="M74.2444 144.164L82.1256 180.671H85.595L77.9836 144.164H74.2444Z" fill="#E0E0E0"/>
<path d="M54.036 116.595L58.8506 141.869H64.3188L59.1774 116.595H54.036Z" fill="#E0E0E0"/>
<path d="M43.2061 114.3L44.1903 118.894H154.029L152.749 114.3H43.2061Z" fill="#EBEBEB"/>
<path d="M45.3036 123.223L46.4664 127.817H155.561L154.569 123.223H45.3036Z" fill="#EBEBEB"/>
<path d="M47.4734 132.46L48.5526 137.055H157.312L156.283 132.46H47.4734Z" fill="#EBEBEB"/>
<path d="M173.067 141.869H55.7878V146.463H173.067V141.869Z" fill="#EBEBEB"/>
<path d="M125.544 84.9681C124.638 84.9684 123.748 84.7304 122.963 84.278C122.177 83.8256 121.525 83.1747 121.071 82.3906C120.617 81.6064 120.376 80.7166 120.375 79.8104C120.373 78.9042 120.609 78.0134 121.06 77.2275L135.88 51.3875C136.328 50.5968 136.977 49.9395 137.763 49.4834C138.548 49.0272 139.441 48.7886 140.349 48.7921C141.255 48.7867 142.146 49.0216 142.931 49.4729C143.716 49.9242 144.367 50.5757 144.818 51.3609L159.79 77.1135C160.245 77.8981 160.486 78.7886 160.488 79.6957C160.491 80.6028 160.254 81.4946 159.803 82.2815C159.352 83.0684 158.702 83.7228 157.918 84.179C157.134 84.6352 156.244 84.8772 155.336 84.8807L125.548 84.9719L125.544 84.9681ZM140.364 50.3311C139.727 50.3291 139.1 50.4971 138.549 50.8177C137.998 51.1383 137.543 51.5999 137.229 52.1551L122.409 77.9951C122.093 78.5462 121.927 79.1708 121.928 79.8063C121.929 80.4418 122.097 81.0659 122.416 81.6159C122.734 82.166 123.191 82.6226 123.742 82.9402C124.292 83.2578 124.917 83.4251 125.552 83.4253L155.34 83.3341C155.974 83.3303 156.596 83.1602 157.144 82.8408C157.692 82.5214 158.147 82.0639 158.462 81.5139C158.778 80.964 158.944 80.3409 158.944 79.7067C158.943 79.0726 158.776 78.4496 158.46 77.9001L143.488 52.1513C143.175 51.5979 142.72 51.1378 142.171 50.818C141.621 50.4981 140.996 50.3301 140.361 50.3311H140.364Z" fill="#EBEBEB"/>
<path d="M137.454 61.5103L138.149 71.1509C138.176 71.5314 138.341 71.8888 138.613 72.1557C138.886 72.4225 139.246 72.5801 139.627 72.5987C140.028 72.6194 140.421 72.4854 140.726 72.2245C141.031 71.9636 141.224 71.5956 141.265 71.1965L142.253 61.4951C142.27 61.3219 142.251 61.147 142.195 60.982C142.14 60.8169 142.05 60.6655 141.932 60.5377C141.814 60.4098 141.67 60.3085 141.51 60.2403C141.35 60.1722 141.177 60.1388 141.003 60.1423L138.651 60.1955C138.484 60.1992 138.321 60.2367 138.169 60.3056C138.018 60.3745 137.882 60.4734 137.77 60.5963C137.658 60.7193 137.573 60.8637 137.518 61.0208C137.464 61.178 137.442 61.3445 137.454 61.5103Z" fill="#EBEBEB"/>
<path d="M142.23 78.0025C142.087 78.4449 141.816 78.8349 141.451 79.1234C141.087 79.4118 140.645 79.5857 140.181 79.6231C139.718 79.6604 139.254 79.5596 138.848 79.3334C138.441 79.1071 138.111 78.7655 137.899 78.3518C137.687 77.9381 137.602 77.4708 137.656 77.0089C137.709 76.547 137.898 76.1113 138.199 75.7567C138.499 75.4022 138.898 75.1447 139.346 75.0169C139.793 74.8891 140.267 74.8966 140.71 75.0385C141.005 75.133 141.278 75.2846 141.514 75.4848C141.75 75.685 141.944 75.9298 142.085 76.2051C142.226 76.4805 142.312 76.781 142.337 77.0894C142.362 77.3978 142.325 77.7081 142.23 78.0025Z" fill="#EBEBEB"/>
<path d="M178.528 180.827C178.528 180.88 141.128 180.926 95.0038 180.926C48.8794 180.926 11.4722 180.88 11.4722 180.827C11.4722 180.774 48.8642 180.728 95.0038 180.728C141.143 180.728 178.528 180.77 178.528 180.827Z" fill="#263238"/>
<path d="M120.658 140.06L82.2776 140.034C77.6644 140.034 73.9176 136.101 73.9176 131.252V30.172C73.9176 25.3232 77.6644 21.3902 82.2776 21.394L120.639 21.4168C125.256 21.4168 128.999 25.3498 128.999 30.1986L128.98 131.279C129.018 136.131 125.275 140.06 120.658 140.06Z" fill="#263238"/>
<path d="M120.646 24.9966H113.206C112.704 25.0212 112.232 25.2438 111.894 25.6156C111.555 25.9873 111.378 26.478 111.401 26.9802V28.3976C111.424 28.9004 111.246 29.3916 110.907 29.7635C110.568 30.1354 110.095 30.3575 109.592 30.3812H95.095C94.5923 30.3566 94.1198 30.1335 93.7814 29.7609C93.443 29.3882 93.2663 28.8966 93.29 28.3938V26.9802C93.3127 26.478 93.1355 25.9873 92.7972 25.6156C92.4589 25.2438 91.9871 25.0212 91.485 24.9966H82.365C79.1312 24.9966 76.5092 27.7516 76.5092 31.1488V129.804C76.5092 133.198 79.1274 135.953 82.3574 135.957L120.646 135.979C123.88 135.979 126.502 133.228 126.502 129.831L126.494 31.1602C126.494 27.7402 123.88 24.9966 120.646 24.9966Z" fill="white"/>
<path d="M86.944 126.643V129.056C86.9437 129.103 86.9308 129.149 86.9066 129.19C86.8824 129.231 86.8479 129.264 86.8064 129.287C86.765 129.31 86.7182 129.321 86.6709 129.32C86.6236 129.319 86.5775 129.305 86.5374 129.28L84.6374 128.072C84.5997 128.047 84.5687 128.014 84.5473 127.975C84.5258 127.936 84.5145 127.892 84.5145 127.847C84.5145 127.803 84.5258 127.759 84.5473 127.719C84.5687 127.68 84.5997 127.647 84.6374 127.623L86.5374 126.415C86.5778 126.39 86.6243 126.376 86.6719 126.375C86.7195 126.373 86.7665 126.385 86.8081 126.409C86.8496 126.432 86.8842 126.466 86.9081 126.507C86.932 126.548 86.9444 126.595 86.944 126.643Z" fill="#E0E0E0"/>
<path d="M102.547 127.824C102.546 128.153 102.448 128.475 102.264 128.748C102.081 129.021 101.821 129.234 101.517 129.359C101.213 129.485 100.878 129.517 100.555 129.453C100.233 129.388 99.9366 129.229 99.7042 128.996C99.4718 128.763 99.3136 128.467 99.2497 128.144C99.1858 127.821 99.219 127.487 99.3451 127.183C99.4712 126.879 99.6845 126.619 99.9581 126.436C100.232 126.254 100.553 126.156 100.882 126.156C101.324 126.157 101.748 126.333 102.06 126.646C102.372 126.959 102.547 127.383 102.547 127.824Z" fill="#E0E0E0"/>
<path d="M116.861 126.373H115.212C114.82 126.373 114.502 126.691 114.502 127.084V128.74C114.502 129.133 114.82 129.451 115.212 129.451H116.861C117.254 129.451 117.572 129.133 117.572 128.74V127.084C117.572 126.691 117.254 126.373 116.861 126.373Z" fill="#E0E0E0"/>
<path d="M120.004 73.0209C122.455 62.8739 116.216 52.6611 106.069 50.2101C95.9221 47.759 85.7094 53.9978 83.2583 64.1448C80.8072 74.2918 87.046 84.5046 97.193 86.9556C107.34 89.4067 117.553 83.1679 120.004 73.0209Z" fill="#F5F5F5"/>
<path d="M102.475 76.9045C102.474 77.2135 102.381 77.5154 102.209 77.7719C102.037 78.0284 101.792 78.228 101.506 78.3454C101.22 78.4628 100.906 78.4927 100.603 78.4314C100.3 78.3701 100.022 78.2203 99.8044 78.001C99.5867 77.7817 99.4389 77.5027 99.3798 77.1993C99.3207 76.8959 99.353 76.5819 99.4725 76.2969C99.5919 76.0118 99.7933 75.7687 100.051 75.5981C100.309 75.4276 100.611 75.3374 100.92 75.3389C101.334 75.3419 101.729 75.5082 102.02 75.8015C102.311 76.0947 102.475 76.4912 102.475 76.9045Z" fill="#455A64"/>
<path d="M97.793 74.8979C98.1915 74.469 98.6729 74.1253 99.208 73.8878C99.7431 73.6502 100.321 73.5237 100.906 73.5159C101.492 73.5081 102.073 73.6191 102.614 73.8423C103.155 74.0655 103.646 74.3962 104.055 74.8143C104.853 75.6199 106.1 74.3849 105.302 73.5793C104.728 73.0012 104.045 72.5437 103.292 72.2337C102.539 71.9237 101.731 71.7674 100.917 71.7741C100.102 71.7809 99.2974 71.9504 98.5495 72.2728C97.8017 72.5953 97.1258 73.064 96.5618 73.6515C95.7828 74.4685 97.0178 75.7187 97.8006 74.8979H97.793Z" fill="#455A64"/>
<path d="M92.4882 67.6402C94.8632 65.5882 97.698 64.2962 100.871 64.2886C104.038 64.2434 107.104 65.4097 109.44 67.549C110.261 68.309 111.511 67.0892 110.686 66.314C108.023 63.8474 104.52 62.4885 100.89 62.514C97.2382 62.514 93.993 64.034 91.2608 66.3786C90.4058 67.1196 91.6408 68.3622 92.4996 67.625L92.4882 67.6402Z" fill="#455A64"/>
<path d="M94.582 71.6567C95.3738 70.773 96.3402 70.0629 97.4201 69.5714C98.5 69.0798 99.6701 68.8173 100.857 68.8005C102.043 68.7838 103.22 69.013 104.313 69.4739C105.407 69.9347 106.393 70.6171 107.209 71.4781C108 72.2875 109.246 71.0525 108.456 70.2393C107.476 69.2154 106.297 68.4038 104.991 67.8545C103.684 67.3052 102.279 67.03 100.862 67.0461C99.4455 67.0621 98.047 67.369 96.7536 67.9477C95.4602 68.5264 94.2994 69.3645 93.3432 70.4103C92.5832 71.2387 93.8106 72.4889 94.582 71.6567Z" fill="#455A64"/>
<path d="M115.669 64.3295C116.13 61.7235 114.391 59.2372 111.785 58.7763C109.179 58.3154 106.693 60.0544 106.232 62.6603C105.771 65.2663 107.51 67.7526 110.116 68.2135C112.722 68.6744 115.208 66.9355 115.669 64.3295Z" fill="#7E57C2"/>
<path d="M112.926 62.1549L112.246 61.4751L109.201 64.5195L109.881 65.1993L112.926 62.1549Z" fill="white"/>
<path d="M109.883 61.4716L109.203 62.1514L112.247 65.1957L112.927 64.5159L109.883 61.4716Z" fill="white"/>
<path d="M100.362 35.5489C100.6 35.406 100.855 35.2949 101.122 35.2183L101.278 34.4583L102.543 34.4355L102.725 35.1955C102.991 35.2629 103.247 35.3651 103.485 35.4995L104.12 35.0739L105.032 35.9555L104.633 36.6091C104.776 36.847 104.887 37.1025 104.964 37.3691L105.724 37.5249L105.746 38.7941L104.986 38.9727C104.92 39.2382 104.819 39.4938 104.686 39.7327L105.104 40.3711L104.226 41.2831L103.573 40.9031C103.335 41.0446 103.079 41.1545 102.813 41.2299L102.657 41.9899L101.392 42.0127L101.209 41.2527C100.944 41.1847 100.688 41.0825 100.449 40.9487L99.807 41.3667L98.895 40.4889L99.294 39.8353C99.1507 39.5978 99.0395 39.3422 98.9634 39.0753L98.2034 38.9195L98.1806 37.6541L98.9406 37.4717C99.0073 37.2065 99.1082 36.951 99.2408 36.7117L98.8228 36.0695L99.7044 35.1613L100.358 35.5413L100.362 35.5489ZM101.034 37.2399C100.847 37.4335 100.722 37.6782 100.674 37.943C100.626 38.2078 100.658 38.4809 100.765 38.7277C100.873 38.9744 101.051 39.1838 101.277 39.3294C101.504 39.4749 101.768 39.55 102.037 39.5452C102.306 39.5404 102.568 39.456 102.789 39.3025C103.01 39.149 103.18 38.9334 103.279 38.6829C103.377 38.4325 103.399 38.1585 103.342 37.8955C103.285 37.6326 103.151 37.3925 102.957 37.2057C102.698 36.9554 102.349 36.8184 101.989 36.8249C101.628 36.8313 101.285 36.9806 101.034 37.2399Z" fill="#E0E0E0"/>
<path d="M84.2916 38.38C83.9116 38.38 83.3834 38.38 82.878 38.38C82.2738 38.38 81.6696 38.38 81.2478 38.38C81.1974 38.38 81.1491 38.36 81.1134 38.3244C81.0778 38.2888 81.0578 38.2404 81.0578 38.19C81.0573 38.1653 81.0617 38.1406 81.0708 38.1176C81.08 38.0946 81.0936 38.0736 81.111 38.0559C81.1283 38.0382 81.149 38.0242 81.1718 38.0146C81.1947 38.005 81.2192 38 81.244 38C81.6658 38 82.2776 38 82.8856 38C83.4936 38 84.094 38.0228 84.5158 38C84.5406 37.9995 84.5652 38.004 84.5882 38.0131C84.6112 38.0222 84.6322 38.0359 84.6499 38.0532C84.6676 38.0706 84.6817 38.0913 84.6912 38.1141C84.7008 38.1369 84.7058 38.1615 84.7058 38.1862C84.7063 38.2112 84.7019 38.236 84.6928 38.2592C84.6837 38.2825 84.6701 38.3037 84.6528 38.3217C84.6355 38.3397 84.6149 38.3541 84.592 38.3641C84.5691 38.3741 84.5445 38.3795 84.5196 38.38H84.2916Z" fill="#263238"/>
<path d="M82.403 39.657C82.3764 39.6564 82.3501 39.6504 82.3259 39.6393C82.3018 39.6282 82.2801 39.6122 82.2624 39.5924L81.1224 38.289C81.0914 38.2531 81.0743 38.2072 81.0743 38.1598C81.0743 38.1123 81.0914 38.0664 81.1224 38.0306L82.2624 36.845C82.279 36.8248 82.2996 36.8083 82.3229 36.7965C82.3462 36.7846 82.3717 36.7777 82.3978 36.7762C82.4239 36.7747 82.4501 36.7786 82.4746 36.7876C82.4991 36.7966 82.5215 36.8106 82.5404 36.8287C82.5593 36.8468 82.5742 36.8686 82.5843 36.8927C82.5943 36.9168 82.5993 36.9428 82.5989 36.9689C82.5985 36.995 82.5927 37.0208 82.5819 37.0446C82.571 37.0684 82.5554 37.0897 82.536 37.1072L81.529 38.1674L82.5702 39.3416C82.5944 39.3691 82.6101 39.4031 82.6154 39.4394C82.6208 39.4757 82.6155 39.5127 82.6002 39.5461C82.5849 39.5794 82.5603 39.6076 82.5294 39.6273C82.4984 39.647 82.4624 39.6573 82.4258 39.657H82.403Z" fill="#263238"/>
<path d="M121.573 37.2742C121.899 37.2742 122.162 37.0105 122.162 36.6852C122.162 36.3599 121.899 36.0962 121.573 36.0962C121.248 36.0962 120.984 36.3599 120.984 36.6852C120.984 37.0105 121.248 37.2742 121.573 37.2742Z" fill="#263238"/>
<path d="M122.162 38.547C122.163 38.6646 122.129 38.7797 122.064 38.8778C121.999 38.9759 121.907 39.0524 121.798 39.0978C121.69 39.1431 121.57 39.1552 121.455 39.1324C121.34 39.1096 121.234 39.0531 121.15 38.97C121.067 38.8868 121.011 38.7809 120.988 38.6655C120.965 38.5502 120.977 38.4307 121.023 38.3222C121.068 38.2137 121.145 38.1212 121.243 38.0563C121.341 37.9915 121.456 37.9573 121.573 37.958C121.73 37.958 121.879 38.0201 121.99 38.1305C122.1 38.241 122.162 38.3908 122.162 38.547Z" fill="#263238"/>
<path d="M121.573 40.9983C121.899 40.9983 122.162 40.7346 122.162 40.4093C122.162 40.084 121.899 39.8203 121.573 39.8203C121.248 39.8203 120.984 40.084 120.984 40.4093C120.984 40.7346 121.248 40.9983 121.573 40.9983Z" fill="#263238"/>
<path d="M88.8288 94.5784C87.933 94.6761 87.0313 94.7091 86.1308 94.6772C85.2315 94.7091 84.3311 94.676 83.4366 94.5784C84.3311 94.4807 85.2315 94.4477 86.1308 94.4796C87.0313 94.4476 87.933 94.4806 88.8288 94.5784Z" fill="#263238"/>
<path d="M98.5074 100.886C98.5074 100.94 95.1938 100.985 91.1088 100.985C87.0238 100.985 83.7102 100.94 83.7102 100.886C83.7102 100.833 87.02 100.788 91.1088 100.788C95.1976 100.788 98.5074 100.833 98.5074 100.886Z" fill="#263238"/>
<path d="M98.5074 107.16C98.5074 107.213 95.1938 107.259 91.1088 107.259C87.0238 107.259 83.7102 107.213 83.7102 107.16C83.7102 107.107 87.02 107.061 91.1088 107.061C95.1976 107.061 98.5074 107.099 98.5074 107.16Z" fill="#263238"/>
<path d="M118.066 98.519H112.655C111.347 98.519 110.287 99.5781 110.287 100.885C110.287 102.191 111.347 103.25 112.655 103.25H118.066C119.373 103.25 120.433 102.191 120.433 100.885C120.433 99.5781 119.373 98.519 118.066 98.519Z" fill="#EBEBEB"/>
<path d="M114.608 100.886C114.608 101.279 114.492 101.662 114.274 101.988C114.056 102.315 113.746 102.569 113.383 102.719C113.021 102.869 112.622 102.908 112.237 102.832C111.853 102.755 111.499 102.566 111.222 102.289C110.944 102.012 110.755 101.658 110.679 101.273C110.602 100.889 110.642 100.49 110.792 100.127C110.942 99.7649 111.196 99.4551 111.522 99.2371C111.849 99.0192 112.232 98.9028 112.624 98.9028C112.885 98.9028 113.143 98.9541 113.383 99.0538C113.624 99.1535 113.843 99.2996 114.027 99.4838C114.211 99.668 114.357 99.8867 114.457 100.127C114.557 100.368 114.608 100.626 114.608 100.886Z" fill="#E0E0E0"/>
<path d="M118.07 109.52H112.655C112.027 109.52 111.425 109.271 110.981 108.827C110.537 108.383 110.287 107.78 110.287 107.153C110.287 106.525 110.537 105.923 110.981 105.479C111.425 105.035 112.027 104.785 112.655 104.785H118.07C118.698 104.785 119.3 105.035 119.744 105.479C120.188 105.923 120.437 106.525 120.437 107.153C120.437 107.78 120.188 108.383 119.744 108.827C119.3 109.271 118.698 109.52 118.07 109.52Z" fill="#EBEBEB"/>
<path d="M112.624 109.136C113.72 109.136 114.608 108.248 114.608 107.153C114.608 106.057 113.72 105.169 112.624 105.169C111.529 105.169 110.641 106.057 110.641 107.153C110.641 108.248 111.529 109.136 112.624 109.136Z" fill="#E0E0E0"/>
<path d="M98.5074 113.461C98.5074 113.518 95.1938 113.559 91.1088 113.559C87.0238 113.559 83.7102 113.518 83.7102 113.461C83.7102 113.404 87.02 113.362 91.1088 113.362C95.1976 113.362 98.5074 113.407 98.5074 113.461Z" fill="#263238"/>
<path d="M118.07 116.527H112.655C112.344 116.527 112.036 116.467 111.749 116.348C111.462 116.23 111.201 116.055 110.981 115.836C110.761 115.616 110.587 115.356 110.468 115.069C110.349 114.782 110.287 114.474 110.287 114.163C110.287 113.535 110.537 112.933 110.981 112.489C111.425 112.045 112.027 111.796 112.655 111.796H118.07C118.698 111.796 119.3 112.045 119.744 112.489C120.188 112.933 120.437 113.535 120.437 114.163C120.437 114.474 120.376 114.782 120.257 115.069C120.138 115.356 119.963 115.616 119.744 115.836C119.524 116.055 119.263 116.23 118.975 116.348C118.688 116.467 118.381 116.527 118.07 116.527Z" fill="#EBEBEB"/>
<path d="M112.624 116.147C113.72 116.147 114.608 115.259 114.608 114.163C114.608 113.068 113.72 112.18 112.624 112.18C111.529 112.18 110.641 113.068 110.641 114.163C110.641 115.259 111.529 116.147 112.624 116.147Z" fill="#E0E0E0"/>
<path d="M163.275 31.6382C163.82 28.261 161.524 25.0814 158.147 24.5362C154.77 23.9911 151.59 26.2868 151.045 29.664C150.5 33.0411 152.796 36.2207 156.173 36.7659C159.55 37.3111 162.73 35.0153 163.275 31.6382Z" fill="#7E57C2"/>
<path d="M156.279 44.5021C156.245 44.5021 156.214 43.3621 156.214 41.9447C156.214 40.5273 156.245 39.3911 156.279 39.3911C156.345 40.2406 156.366 41.093 156.343 41.9447C156.366 42.7977 156.345 43.6513 156.279 44.5021Z" fill="#7E57C2"/>
<path d="M152.711 37.9509C152.741 37.9509 152.16 39.0377 151.411 40.3335C150.662 41.6293 150.028 42.6705 149.997 42.6515C149.967 42.6325 150.548 41.5685 151.297 40.2689C152.046 38.9693 152.68 37.9319 152.711 37.9509Z" fill="#7E57C2"/>
<path d="M149.047 35.6709C148.595 36.1143 148.113 36.5257 147.603 36.9021C147.121 37.3139 146.614 37.6946 146.083 38.0421C146.536 37.5987 147.018 37.1873 147.527 36.8109C148.008 36.3971 148.516 36.0162 149.047 35.6709Z" fill="#7E57C2"/>
<path d="M162.458 41.9826C162.383 41.7793 162.329 41.5693 162.294 41.3556C162.207 40.9756 162.078 40.4284 161.914 39.8356C161.751 39.2428 161.595 38.7184 161.477 38.3384C161.398 38.1358 161.34 37.9258 161.302 37.7114C161.411 37.9005 161.499 38.1005 161.565 38.308C161.705 38.688 161.88 39.2086 162.04 39.8014C162.199 40.3942 162.309 40.9414 162.378 41.3214C162.428 41.5384 162.455 41.76 162.458 41.9826Z" fill="#7E57C2"/>
<path d="M168.739 37.5252C168.101 37.0521 167.49 36.5447 166.907 36.0052C166.297 35.5004 165.715 34.9625 165.163 34.394C165.801 34.8672 166.412 35.3746 166.995 35.914C167.605 36.4189 168.187 36.9568 168.739 37.5252Z" fill="#7E57C2"/>
<path d="M171.144 31.3997C170.889 31.384 170.635 31.3484 170.384 31.2933C169.925 31.2173 169.29 31.1185 168.587 31.0387C167.884 30.9589 167.242 30.9095 166.778 30.8791C166.524 30.8785 166.269 30.8569 166.018 30.8145C166.27 30.7802 166.525 30.7713 166.778 30.7879C167.246 30.7879 167.892 30.8297 168.598 30.9095C169.305 30.9893 169.944 31.1033 170.4 31.2021C170.653 31.2449 170.903 31.311 171.144 31.3997Z" fill="#7E57C2"/>
<path d="M171.152 25.3767C171.152 25.4147 169.822 25.7567 168.158 26.1747C166.493 26.5927 165.14 26.8777 165.118 26.8435C165.095 26.8093 166.451 26.4635 168.112 26.0493C169.773 25.6351 171.144 25.3425 171.152 25.3767Z" fill="#7E57C2"/>
<path d="M164.16 18.3618C164.187 18.3618 163.548 19.403 162.727 20.6418C161.907 21.8806 161.207 22.8762 161.185 22.8534C161.162 22.8306 161.796 21.8122 162.617 20.5734C163.094 19.8105 163.609 19.0724 164.16 18.3618Z" fill="#7E57C2"/>
<path d="M157.21 16.895C157.23 17.1784 157.23 17.4628 157.21 17.7462C157.21 18.2706 157.21 18.9926 157.21 19.7906C157.21 20.5886 157.21 21.3106 157.233 21.8426C157.253 22.1247 157.253 22.4079 157.233 22.69C157.179 22.412 157.149 22.1297 157.145 21.8464C157.115 21.322 157.088 20.5962 157.088 19.7944C157.088 18.9926 157.111 18.2744 157.141 17.7424C157.139 17.4585 157.161 17.1748 157.21 16.895Z" fill="#7E57C2"/>
<path d="M151.951 23.4423C151.92 23.4613 151.267 22.4505 150.495 21.1851C149.724 19.9197 149.116 18.8747 149.146 18.8557C149.177 18.8367 149.83 19.8513 150.605 21.1357C151.381 22.4201 152 23.4271 151.951 23.4423Z" fill="#7E57C2"/>
<path d="M148.808 26.1137C148.586 26.1046 148.365 26.0702 148.151 26.011C147.748 25.9236 147.197 25.7906 146.593 25.631C145.988 25.4714 145.453 25.251 145.073 25.118C144.86 25.0505 144.655 24.9614 144.461 24.8521C144.68 24.892 144.895 24.9531 145.103 25.0344C145.483 25.156 146.034 25.3309 146.623 25.5057C147.212 25.6805 147.763 25.8325 148.166 25.9389C148.385 25.9767 148.6 26.0352 148.808 26.1137Z" fill="#7E57C2"/>
<path d="M147.44 30.8716C146.788 31.0019 146.128 31.087 145.464 31.1262C144.805 31.211 144.141 31.2541 143.477 31.2554C144.129 31.1244 144.789 31.0381 145.453 30.997C146.112 30.9144 146.776 30.8725 147.44 30.8716Z" fill="#7E57C2"/>
<path d="M143.214 141.261L148.755 180.732L150.199 180.777C149.279 167.371 148.299 153.699 143.214 141.261Z" fill="#455A64"/>
<path d="M158.608 139.411C154.736 143.64 153.178 149.488 152.198 155.146C150.807 163.168 150.678 172.645 151.099 180.777L153.121 180.823C152.32 166.796 154.182 152.745 158.608 139.411Z" fill="#455A64"/>
<path d="M144.233 164.612C143.788 162.655 143.279 160.668 142.162 159C140.642 156.75 138.198 155.329 135.725 154.219C133.251 153.11 130.655 152.228 128.421 150.693C130.914 154.778 136.568 155.865 139.441 159.687C140.874 161.587 141.47 163.974 142.029 166.288C143.256 171.334 144.009 175.701 145.232 180.728H146.874C146.334 175.306 145.452 169.923 144.233 164.612Z" fill="#455A64"/>
<path d="M154.599 180.777C154.599 180.777 155.986 165.102 157.016 162.222C158.046 159.342 167.774 151.392 167.683 151.768C167.591 152.144 160.383 160.843 159.353 162.64C158.323 164.437 156.56 180.777 156.56 180.777H154.599Z" fill="#455A64"/>
<path d="M108.612 164.384C108.996 164.538 109.345 164.767 109.638 165.059C109.931 165.351 110.163 165.699 110.318 166.083C110.628 166.853 110.758 167.683 110.698 168.511C110.618 170.107 109.824 171.767 108.935 173.097C107.525 172.018 107.088 170.008 106.928 168.971C106.677 167.337 107.217 164.228 108.619 164.384" fill="#7E57C2"/>
<path d="M110.648 175.609C110.528 175.162 110.529 174.691 110.65 174.243C110.77 173.796 111.007 173.389 111.336 173.063C111.67 172.743 112.063 172.493 112.495 172.327C112.926 172.161 113.386 172.083 113.848 172.098C114.058 172.084 114.268 172.115 114.464 172.189C114.661 172.263 114.84 172.379 114.988 172.527C115.105 172.691 115.175 172.884 115.191 173.085C115.207 173.285 115.168 173.487 115.079 173.667C114.9 174.026 114.629 174.33 114.293 174.549C113.183 175.351 111.963 175.921 110.629 175.613" fill="#7E57C2"/>
<path d="M109.254 180.58C109.254 180.47 109.263 180.361 109.28 180.253C109.307 180.021 109.341 179.721 109.383 179.364C109.47 178.373 109.715 177.404 110.109 176.491C110.522 175.577 111.172 174.791 111.99 174.211C112.239 174.042 112.507 173.903 112.788 173.797C112.863 173.766 112.941 173.741 113.02 173.721L113.103 173.702C112.729 173.859 112.372 174.052 112.035 174.279C111.249 174.867 110.623 175.643 110.215 176.536C109.822 177.438 109.566 178.394 109.455 179.371C109.398 179.751 109.353 180.048 109.315 180.257C109.306 180.366 109.285 180.474 109.254 180.58Z" fill="#263238"/>
<path d="M108.406 166.786C108.421 166.831 108.43 166.878 108.433 166.926L108.482 167.333C108.528 167.69 108.581 168.199 108.642 168.834C108.767 170.103 108.912 171.855 109.022 173.793C109.132 175.731 109.208 177.49 109.239 178.763C109.239 179.402 109.261 179.903 109.261 180.283V180.694C109.261 180.789 109.261 180.838 109.261 180.838C109.257 180.79 109.257 180.742 109.261 180.694L109.242 180.283C109.242 179.903 109.208 179.405 109.182 178.763C109.128 177.49 109.052 175.723 108.935 173.797C108.817 171.87 108.684 170.107 108.581 168.838C108.528 168.214 108.49 167.698 108.46 167.337C108.46 167.169 108.437 167.033 108.429 166.926C108.418 166.88 108.411 166.833 108.406 166.786Z" fill="#263238"/>
<path d="M108.403 176.727C108.18 175.777 107.734 174.894 107.101 174.151C106.469 173.408 105.668 172.827 104.766 172.455C104.306 172.269 103.713 172.167 103.368 172.524C103.022 172.881 103.143 173.47 103.368 173.918C103.822 174.85 104.542 175.626 105.436 176.15C106.331 176.673 107.36 176.92 108.395 176.86" fill="#7E57C2"/>
<path d="M105.078 173.941C105.179 173.966 105.277 174.002 105.37 174.047C105.461 174.085 105.575 174.131 105.701 174.196C105.826 174.26 105.974 174.329 106.126 174.427C106.295 174.524 106.457 174.63 106.613 174.747C106.795 174.876 106.97 175.016 107.137 175.165C107.52 175.505 107.863 175.887 108.159 176.305C108.45 176.73 108.69 177.187 108.874 177.669C108.951 177.878 109.017 178.091 109.071 178.307C109.12 178.496 109.16 178.688 109.189 178.881C109.216 179.039 109.234 179.199 109.242 179.36C109.252 179.486 109.252 179.613 109.242 179.74C109.252 179.842 109.252 179.945 109.242 180.048C109.216 180.048 109.242 179.607 109.109 178.908C109.077 178.718 109.033 178.53 108.98 178.345C108.922 178.132 108.852 177.923 108.771 177.718C108.586 177.247 108.349 176.799 108.064 176.381C107.773 175.967 107.44 175.585 107.069 175.241C106.906 175.091 106.734 174.95 106.556 174.819C106.396 174.69 106.229 174.591 106.081 174.492C105.48 174.123 105.07 173.964 105.078 173.941Z" fill="#263238"/>
<path d="M41.8266 159.904L31.1372 168.67L41.9786 182.02C43.1908 180.906 40.1432 171.919 40.1432 171.919L47.2226 166.599L41.8266 159.904Z" fill="#455A64"/>
<g opacity="0.6">
<path d="M37.3692 167.325C37.2262 167.229 37.0527 167.188 36.8817 167.211C36.7107 167.235 36.5542 167.32 36.442 167.451C36.3397 167.591 36.2949 167.764 36.3168 167.936C36.3387 168.108 36.4257 168.265 36.5598 168.374C36.7134 168.473 36.8974 168.513 37.0781 168.487C37.2588 168.461 37.4242 168.371 37.544 168.234C37.635 168.076 37.6618 167.89 37.6186 167.714C37.5753 167.537 37.4656 167.385 37.3122 167.287" fill="white"/>
</g>
<g opacity="0.6">
<path d="M31.179 168.632L32.2544 167.743L42.18 180.982C42.18 180.982 42.4004 181.788 41.9254 182.058L31.179 168.632Z" fill="white"/>
</g>
<path d="M40.3864 172.083C40.3218 172.136 40.0064 171.832 39.5542 171.684C39.102 171.536 38.6726 171.585 38.6498 171.501C38.627 171.418 39.083 171.213 39.6492 171.406C40.2154 171.6 40.4586 172.049 40.3864 172.083Z" fill="#263238"/>
<path d="M40.945 173.956C40.8956 174.021 40.565 173.831 40.0976 173.831C39.6302 173.831 39.2996 174.006 39.2502 173.941C39.2008 173.876 39.5352 173.531 40.1014 173.538C40.6676 173.546 41.0058 173.903 40.945 173.956Z" fill="#263238"/>
<path d="M39.9 176.111C39.8354 176.065 40.09 175.708 40.584 175.587C41.078 175.465 41.4656 175.655 41.4314 175.723C41.3972 175.792 41.0514 175.761 40.6714 175.868C40.2914 175.974 39.9722 176.172 39.9 176.111Z" fill="#263238"/>
<path d="M41.8646 170.688C41.7848 170.711 41.6328 170.338 41.306 169.989C40.9792 169.639 40.6334 169.449 40.66 169.369C40.6866 169.29 41.1464 169.369 41.5226 169.791C41.8988 170.213 41.9444 170.68 41.8646 170.688Z" fill="#263238"/>
<path d="M43.1908 169.1C43.1642 169.123 42.9172 168.898 42.6512 168.427C42.4991 168.151 42.3804 167.858 42.2978 167.553C42.2492 167.374 42.2137 167.191 42.1914 167.006C42.1738 166.897 42.1738 166.785 42.1914 166.675C42.2051 166.596 42.2439 166.523 42.302 166.467C42.36 166.411 42.4344 166.375 42.5144 166.364C42.5861 166.359 42.6581 166.371 42.7241 166.4C42.7902 166.428 42.8486 166.472 42.8944 166.527C42.9639 166.613 43.0214 166.707 43.0654 166.808C43.146 166.98 43.2109 167.158 43.2592 167.34C43.3413 167.647 43.3734 167.966 43.3542 168.283C43.3692 168.578 43.2907 168.871 43.13 169.119C43.0882 169.119 43.168 168.792 43.13 168.283C43.1181 167.988 43.0683 167.695 42.9818 167.413C42.9297 167.248 42.8649 167.088 42.788 166.934C42.712 166.763 42.6132 166.641 42.522 166.656C42.4308 166.672 42.4764 166.656 42.4574 166.732C42.4464 166.812 42.4464 166.892 42.4574 166.972C42.4763 167.145 42.5042 167.318 42.541 167.489C42.607 167.779 42.6999 168.063 42.8184 168.336C42.9619 168.581 43.0864 168.836 43.1908 169.1Z" fill="#263238"/>
<path d="M43.0312 169.077C43.0008 169.077 43.13 168.743 43.5328 168.374C43.7713 168.163 44.0436 167.993 44.3384 167.872C44.5139 167.802 44.6959 167.748 44.8818 167.713C44.9993 167.678 45.1238 167.673 45.2436 167.7C45.3633 167.726 45.4742 167.783 45.5658 167.865C45.6131 167.926 45.6421 167.999 45.6495 168.075C45.6569 168.152 45.6424 168.229 45.6076 168.298C45.5564 168.395 45.4925 168.484 45.4176 168.564C45.2887 168.713 45.1374 168.841 44.9692 168.944C44.6889 169.111 44.3717 169.206 44.0458 169.221C43.4872 169.24 43.187 169.031 43.206 169.009C43.4794 169.023 43.7534 169.023 44.0268 169.009C44.3154 168.972 44.5927 168.873 44.84 168.72C44.983 168.631 45.1112 168.521 45.22 168.393C45.3454 168.256 45.4176 168.112 45.3606 168.07C45.3002 168.032 45.2323 168.007 45.1615 167.997C45.0907 167.987 45.0187 167.993 44.9502 168.013C44.7811 168.043 44.6147 168.086 44.4524 168.142C44.181 168.244 43.9252 168.384 43.6924 168.556C43.2554 168.838 43.0692 169.1 43.0312 169.077Z" fill="#263238"/>
<path d="M36.9854 167.063L37.1146 180.88L54.3134 180.808C54.207 179.166 45.2922 175.902 45.2922 175.902L45.5734 167.044L36.9854 167.063Z" fill="#455A64"/>
<g opacity="0.6">
<path d="M39.9722 175.18C39.8066 175.231 39.6657 175.341 39.5766 175.49C39.4875 175.639 39.4565 175.815 39.4896 175.985C39.5352 176.152 39.643 176.295 39.7907 176.385C39.9383 176.474 40.1148 176.504 40.2838 176.468C40.4558 176.41 40.6013 176.292 40.6941 176.136C40.7868 175.98 40.8205 175.796 40.7892 175.617C40.7241 175.447 40.5961 175.309 40.4317 175.232C40.2674 175.155 40.0796 175.144 39.9076 175.203" fill="white"/>
</g>
<g opacity="0.6">
<path d="M37.1108 180.834V179.436L53.6522 179.998C53.6522 179.998 54.4122 180.332 54.3286 180.872L37.1108 180.834Z" fill="white"/>
</g>
<path d="M45.5734 175.822C45.5734 175.906 45.1516 175.947 44.7374 176.202C44.3232 176.457 44.1066 176.829 44.0306 176.795C43.9546 176.761 44.0762 176.278 44.5816 175.955C45.087 175.632 45.6 175.746 45.5734 175.822Z" fill="#263238"/>
<path d="M47.3784 176.559C47.3784 176.643 47.0364 176.787 46.7514 177.144C46.4664 177.502 46.3714 177.874 46.303 177.874C46.2346 177.874 46.1662 177.395 46.5272 176.958C46.8882 176.521 47.3784 176.479 47.3784 176.559Z" fill="#263238"/>
<path d="M48.412 178.718C48.336 178.718 48.2182 178.315 48.412 177.855C48.6058 177.395 49.02 177.209 49.0542 177.277C49.0884 177.346 48.849 177.597 48.6742 177.977C48.4994 178.357 48.4956 178.706 48.412 178.718Z" fill="#263238"/>
<path d="M45.4138 173.797C45.3758 173.873 44.992 173.759 44.517 173.797C44.042 173.835 43.6734 173.983 43.6278 173.911C43.5822 173.838 43.9394 173.531 44.498 173.504C45.0566 173.477 45.4518 173.728 45.4138 173.797Z" fill="#263238"/>
<path d="M44.992 171.76C44.7109 171.837 44.4142 171.837 44.1332 171.76C43.6377 171.672 43.1633 171.492 42.7348 171.228C42.6381 171.174 42.5497 171.106 42.4726 171.027C42.4193 170.966 42.3869 170.889 42.3801 170.809C42.3732 170.728 42.3923 170.647 42.4346 170.578C42.4773 170.517 42.5343 170.468 42.6005 170.434C42.6668 170.4 42.7403 170.383 42.8146 170.384C42.9239 170.384 43.0327 170.399 43.1376 170.43C43.6349 170.545 44.0942 170.785 44.4714 171.129C44.8704 171.509 45.011 171.809 44.9806 171.825C44.9502 171.84 44.7488 171.593 44.3384 171.289C44.1053 171.112 43.8497 170.968 43.5784 170.859C43.4169 170.795 43.2504 170.744 43.0806 170.707C42.8982 170.662 42.7462 170.662 42.7006 170.742C42.655 170.821 42.7006 170.783 42.7234 170.837C42.7784 170.896 42.8426 170.946 42.9134 170.985C43.0609 171.079 43.2131 171.165 43.3694 171.243C43.6375 171.374 43.9174 171.48 44.2054 171.559C44.4717 171.608 44.7345 171.676 44.992 171.76Z" fill="#263238"/>
<path d="M44.8856 171.878C44.8552 171.878 44.688 171.593 44.6538 171.046C44.6378 170.727 44.6763 170.409 44.7678 170.103C44.8226 169.922 44.8952 169.746 44.9844 169.579C45.0301 169.465 45.1045 169.365 45.2004 169.288C45.2963 169.212 45.4104 169.161 45.5316 169.142C45.6116 169.139 45.6904 169.161 45.7581 169.204C45.8257 169.246 45.8792 169.308 45.9116 169.381C45.9552 169.482 45.9858 169.588 46.0028 169.697C46.0402 169.955 46.0259 170.218 45.9607 170.47C45.8954 170.723 45.7806 170.96 45.6228 171.167C45.2884 171.616 44.9388 171.718 44.9312 171.688C44.9236 171.657 45.1934 171.483 45.448 171.053C45.5974 170.807 45.6896 170.53 45.7178 170.244C45.7424 170.079 45.7424 169.911 45.7178 169.746C45.6874 169.564 45.619 169.415 45.5506 169.434C45.4822 169.453 45.3188 169.571 45.2504 169.719C45.1663 169.869 45.0951 170.025 45.0376 170.187C44.943 170.464 44.8879 170.753 44.8742 171.046C44.84 171.551 44.9312 171.866 44.8856 171.878Z" fill="#263238"/>
<path d="M38.4598 86.9854C38.4598 86.9854 36.0468 89.5656 34.865 92.0394C33.6832 94.5132 32.9232 100.399 32.9232 100.399C32.9232 100.399 29.5944 107.813 30.0998 111.606C30.6052 115.398 33.9948 141.36 33.9948 141.36C33.9948 141.36 33.8276 166.576 36.2292 171.072L36.765 173.5L46.4626 171.76L46.4018 170.304L48.6818 120.859L54.5186 87.1944L38.4598 86.9854Z" fill="#263238"/>
<path d="M59.8576 94.3386C59.8576 94.3386 65.6526 126.259 66.1656 131.795C66.6786 137.332 46.9414 166.546 46.9414 166.546L37.9202 157.149L50.8706 133.076L46.6602 108.813L52.516 87.377L58.6644 87.5936L59.8576 94.3386Z" fill="#263238"/>
<path d="M34.7244 163.217C34.7342 163.454 34.757 163.69 34.7928 163.924C34.8536 164.388 34.9676 165.064 35.1272 165.946C35.4502 167.701 35.9746 170.247 36.6776 173.428V173.496H36.746L46.4474 171.794H46.5196V171.718C46.7894 165.064 47.1124 157.111 47.4582 148.58C47.8154 139.403 48.146 130.891 48.4196 123.91C49.1454 118.301 49.7458 113.65 50.1676 110.416C50.369 108.805 50.5286 107.54 50.6388 106.666C50.6882 106.24 50.73 105.906 50.7566 105.681C50.7832 105.457 50.787 105.343 50.787 105.343C50.787 105.343 50.7642 105.453 50.73 105.678C50.6958 105.902 50.6464 106.236 50.5856 106.658C50.464 107.528 50.2892 108.794 50.065 110.401C49.6394 113.62 49.02 118.267 48.26 123.88C47.9788 130.86 47.633 139.372 47.2606 148.549C46.9262 157.08 46.6146 165.034 46.3562 171.687L46.4322 171.6L36.7422 173.344L36.822 173.397C36.1 170.221 35.5566 167.678 35.2108 165.93C35.0398 165.053 34.9144 164.376 34.8308 163.916C34.789 163.688 34.7662 163.514 34.751 163.396C34.7452 163.336 34.7363 163.276 34.7244 163.217Z" fill="#455A64"/>
<path d="M23.465 73.777C23.465 73.777 29.469 60.8342 30.8864 60.1464C32.3038 59.4586 36.3774 59.2268 36.9284 60.002L26.1668 75.4984L23.465 73.777Z" fill="#455A64"/>
<path d="M23.7766 72.0287C23.5114 71.8819 23.2004 71.8411 22.9064 71.9147C21.0406 72.3783 14.2234 74.1947 13.4634 76.1441C12.5818 78.3899 17.974 107.574 18.6694 108.364C19.3648 109.155 30.0884 107.828 30.419 106.582C30.7496 105.336 26.9306 73.8793 26.9306 73.8793L23.7766 72.0287Z" fill="#455A64"/>
<path d="M15.314 91.9067C15.314 91.9067 14.706 91.9447 14.1018 93.2861C13.4976 94.6275 14.5616 105.518 15.3634 106.632C16.1652 107.745 18.506 107.981 18.506 107.981L15.314 91.9067Z" fill="#455A64"/>
<path d="M27.265 107.179C27.2434 107.158 27.2254 107.134 27.2118 107.107L27.0674 106.883C26.942 106.685 26.7748 106.385 26.5772 105.986C26.0335 104.855 25.6217 103.665 25.3498 102.44C24.9551 100.626 24.6708 98.7902 24.4986 96.9418C24.2782 94.8594 24.035 92.5718 23.7766 90.1702C23.2598 85.367 22.8304 81.0122 22.7582 77.8392C22.7202 76.2546 22.7582 74.974 22.8 74.0886C22.8228 73.6478 22.8494 73.302 22.8722 73.0702C22.8722 72.9638 22.8912 72.8802 22.8988 72.808C22.8948 72.7777 22.8948 72.7471 22.8988 72.7168C22.903 72.7471 22.903 72.7777 22.8988 72.808C22.8988 72.8802 22.8988 72.9676 22.8988 73.074C22.8988 73.321 22.8988 73.663 22.8646 74.0924C22.8418 74.974 22.8304 76.2546 22.8874 77.8354C22.9938 80.997 23.446 85.348 23.9628 90.1512C24.2136 92.549 24.453 94.8366 24.6696 96.919C24.8317 98.7634 25.1007 100.597 25.4752 102.41C25.7331 103.63 26.1216 104.819 26.6342 105.955C26.8204 106.354 26.9762 106.658 27.0902 106.864L27.2156 107.095C27.2536 107.16 27.2688 107.16 27.265 107.179Z" fill="#263238"/>
<path d="M23.845 89.8697C23.4253 89.9726 23.0004 90.0525 22.572 90.1091C21.7892 90.2421 20.7062 90.4511 19.532 90.7437C18.3578 91.0363 17.2976 91.3555 16.5414 91.6025C16.1376 91.7536 15.7252 91.8805 15.3064 91.9825C15.4003 91.914 15.5041 91.8601 15.6142 91.8229C15.8194 91.7317 16.1196 91.6101 16.4958 91.4695C18.4592 90.7369 20.4986 90.227 22.5758 89.9495C22.9558 89.9001 23.294 89.8659 23.5182 89.8545C23.6273 89.8439 23.7374 89.849 23.845 89.8697Z" fill="#263238"/>
<path d="M15.1734 90.7021C15.1976 90.759 15.2129 90.8192 15.219 90.8807C15.2456 91.0213 15.276 91.1923 15.314 91.3975L15.6294 93.2975C15.8992 94.9049 16.2906 97.1242 16.7694 99.5638C17.2482 102.003 17.7574 104.204 18.1298 105.792C18.3122 106.552 18.4604 107.198 18.5744 107.673L18.6884 108.186C18.7057 108.245 18.7147 108.307 18.715 108.368C18.6843 108.315 18.6624 108.257 18.6504 108.197L18.4984 107.692C18.373 107.255 18.1982 106.617 17.993 105.826C17.5864 104.245 17.0658 102.049 16.5756 99.6055C16.0854 97.1621 15.7168 94.9354 15.4812 93.3166C15.3634 92.511 15.276 91.8536 15.2266 91.4166C15.2038 91.2076 15.1848 91.0365 15.1696 90.8921C15.1635 90.8289 15.1648 90.7651 15.1734 90.7021Z" fill="#263238"/>
<path d="M22.8 77.5618C22.7836 77.2905 22.804 77.0182 22.8608 76.7524C23.0533 75.4615 23.3885 74.196 23.8602 72.979C23.9426 72.7204 24.0589 72.4738 24.206 72.2456C24.2592 72.2684 23.826 73.4236 23.446 74.9056C23.066 76.3876 22.8684 77.5694 22.8 77.5618Z" fill="#263238"/>
<path d="M60.4732 49.852C60.4124 48.7538 60.2756 43.392 60.211 42.594C60.1428 41.4819 59.6633 40.4348 58.8658 39.6566C58.4726 39.2713 57.9748 39.01 57.4343 38.9053C56.8938 38.8006 56.3345 38.857 55.8258 39.0676C55.5046 39.1488 55.2106 39.3136 54.9737 39.5452C54.7367 39.7768 54.5653 40.067 54.4768 40.3862C52.2272 48.3662 52.5768 56.9048 51.5888 65.1736C54.5262 65.6524 58.4782 65.4586 61.446 65.3028C61.4384 58.6985 60.8798 56.9998 60.4732 49.852Z" fill="#263238"/>
<path d="M59.2382 61.1264C59.2208 61.0568 59.2132 60.9852 59.2154 60.9136C59.2154 60.754 59.1964 60.5336 59.185 60.3018C59.185 59.7432 59.1432 58.9756 59.1166 58.0446C59.0748 56.1142 59.0216 53.4846 58.9608 50.6004C58.938 49.145 58.9152 47.7618 58.8962 46.5002C58.8962 45.8694 58.8962 45.2728 58.8772 44.7104C58.8839 44.2016 58.8483 43.6932 58.7708 43.1904C58.7258 42.8235 58.6003 42.4711 58.4032 42.1584C58.2061 41.8457 57.9424 41.5804 57.6308 41.3816C57.3959 41.2526 57.1374 41.1725 56.8708 41.146C56.8708 41.146 56.8708 41.146 56.924 41.146C56.977 41.1401 57.0305 41.1401 57.0836 41.146C57.2923 41.1653 57.4952 41.226 57.6802 41.3246C57.9726 41.48 58.225 41.7011 58.4174 41.9706C58.6729 42.3283 58.8456 42.7385 58.9228 43.1714C59.0121 43.6872 59.0566 44.2097 59.0558 44.7332C59.0558 45.2956 59.0786 45.896 59.0938 46.523C59.1166 47.7846 59.1432 49.183 59.1736 50.6232C59.2116 53.5188 59.2458 56.1408 59.2724 58.0674C59.2724 59.0022 59.2724 59.766 59.2724 60.3246C59.2724 60.5754 59.2724 60.7768 59.2724 60.9402C59.2662 61.0031 59.2547 61.0654 59.2382 61.1264Z" fill="#455A64"/>
<path d="M56.5668 58.0944C56.5412 57.9361 56.5298 57.7759 56.5326 57.6156C56.5326 57.304 56.5136 56.8556 56.5136 56.3008C56.5136 55.1912 56.5364 53.6408 56.5782 51.965C56.62 50.2892 56.6656 48.7806 56.6998 47.633C56.6998 47.1086 56.7302 46.6678 56.7416 46.322C56.7381 46.1601 56.7521 45.9982 56.7834 45.8394C56.8091 45.9989 56.8205 46.1604 56.8176 46.322C56.8176 46.6298 56.8176 47.082 56.8176 47.6368C56.8176 48.7464 56.7948 50.2968 56.753 51.9688C56.7112 53.6408 56.6618 55.1532 56.6314 56.3008C56.6124 56.8252 56.601 57.266 56.5896 57.6156C56.5993 57.7755 56.5916 57.936 56.5668 58.0944Z" fill="#455A64"/>
<path d="M37.2172 60.146C36.8372 60.146 29.6704 60.6552 28.006 68.3312C26.3416 76.0072 25.8628 86.7612 25.8628 86.7612L33.6338 86.0012L37.2172 60.146Z" fill="#7E57C2"/>
<path d="M40.736 58.4475L41.9976 56.1181L53.0176 55.8179L53.7776 57.8015L60.2718 60.1461L59.7284 88.9197L64.5392 115.485C64.5392 115.485 64.4898 119.32 51.68 120.536L50.6654 106.65L44.2624 106.498L44.4372 120.061C44.4372 120.061 33.136 119.878 29.5526 117.321C29.5526 117.321 28.4658 104.401 31.5514 95.0947C34.2532 86.9475 35.3058 84.8347 35.3058 84.8347L35.5262 60.4197L40.736 58.4475Z" fill="#7E57C2"/>
<g opacity="0.3">
<path d="M37.3312 60.4766C35.1171 69.9538 32.9004 79.4348 30.6812 88.9196L32.9346 91.3098C34.0892 90.7713 35.0674 89.9163 35.7555 88.8441C36.4436 87.7719 36.8134 86.5265 36.822 85.2526C36.822 83.9378 36.404 82.6572 36.3508 81.3424C36.2292 78.3784 37.8708 75.6614 38.6308 72.7924C39.6758 68.7302 38.912 64.3678 37.3312 60.4766Z" fill="black"/>
</g>
<path d="M58.8658 59.7773C61.5258 60.2675 63.574 63.0795 64.1858 66.0967C64.5392 67.8637 65.569 76.3833 65.569 76.3833L66.1352 79.5069C66.1352 79.5069 66.6102 90.2419 64.334 91.4427C61.674 92.8411 60.154 91.306 59.2724 90.1811C58.3908 89.0563 57.4522 81.7375 57.4522 81.7375L58.444 64.2195L58.8658 59.7773Z" fill="#7E57C2"/>
<path d="M60.1236 64.0869C60.1229 64.1902 60.1127 64.2933 60.0932 64.3947C60.0628 64.6101 60.021 64.9027 59.9678 65.2725C59.8462 66.0325 59.679 67.1459 59.47 68.4911C59.261 69.8363 58.9912 71.4741 58.71 73.2677C58.5618 74.1645 58.4098 75.1069 58.2502 76.0835C58.0906 77.0601 57.893 78.0671 57.8094 79.1235C57.7582 79.7203 57.7582 80.3203 57.8094 80.9171C58.634 84.6069 59.4054 87.8635 59.9868 90.1967C60.2794 91.3367 60.515 92.2791 60.686 92.9441C60.7658 93.2519 60.8304 93.4951 60.8798 93.6813C60.9093 93.7661 60.9285 93.8541 60.9368 93.9435C60.8977 93.8633 60.8671 93.7793 60.8456 93.6927L60.6176 92.9631C60.4276 92.3247 60.1616 91.3937 59.8576 90.2309C59.242 87.9053 58.4478 84.6487 57.6194 80.9627C57.5682 80.3558 57.5682 79.7456 57.6194 79.1387C57.703 78.0823 57.9006 77.0715 58.064 76.0987C58.2274 75.1259 58.387 74.1987 58.5352 73.2829C58.8392 71.4931 59.1128 69.8629 59.3408 68.5139C59.5688 67.1649 59.7664 66.0819 59.9032 65.3029C59.9716 64.9419 60.0248 64.6493 60.0666 64.4327C60.0728 64.3157 60.0919 64.1997 60.1236 64.0869Z" fill="#263238"/>
<path d="M31.92 61.9399L33.934 88.9199C33.934 88.9199 37.7036 71.7325 37.8556 67.3359C37.971 64.8143 37.715 62.2894 37.0956 59.8423C37.0956 59.8423 33.44 59.2533 31.92 61.9399Z" fill="#455A64"/>
<path d="M30.7572 60.23C31.0061 60.307 31.2354 60.4366 31.4298 60.61C31.6567 60.7914 31.8268 61.0341 31.92 61.3092C32.0271 61.6343 32.0948 61.9711 32.1214 62.3124C32.186 63.0268 32.1822 63.6728 32.1822 64.1402C32.1985 64.3939 32.1883 64.6486 32.1518 64.9002C32.0764 64.654 32.0392 64.3977 32.0416 64.1402C32.0036 63.6766 31.9884 63.0306 31.9238 62.3276C31.8592 61.6246 31.6996 60.9938 31.3576 60.7012C31.0156 60.4086 30.7382 60.2604 30.7572 60.23Z" fill="#263238"/>
<path d="M44.7336 61.2064C44.7336 61.2064 44.6462 61.1342 44.5056 60.9708C44.365 60.8074 44.1674 60.5908 43.9204 60.2678H44.0344C43.7608 61.062 43.3428 62.2134 42.8678 63.5054L42.7994 63.6878L42.6968 63.532C42.6398 63.4446 42.5714 63.3572 42.5182 63.266C42.1996 62.6945 41.9362 62.094 41.7316 61.4724C41.5302 60.9062 41.3516 60.397 41.2224 59.9524C41.0932 59.5078 40.964 59.1924 40.8766 58.9454C40.8242 58.8229 40.7835 58.6956 40.755 58.5654C40.8374 58.6698 40.9028 58.7865 40.9488 58.9112C41.059 59.1392 41.1958 59.4812 41.3554 59.903C41.515 60.3248 41.7012 60.8416 41.9026 61.3888C42.1141 61.9948 42.3759 62.5821 42.6854 63.1444C42.7386 63.2318 42.7994 63.3116 42.8526 63.3914L42.6816 63.418C43.1642 62.1298 43.6012 60.986 43.9128 60.2032L43.9546 60.093L44.0268 60.188C44.2855 60.5109 44.5217 60.8511 44.7336 61.2064Z" fill="#263238"/>
<path d="M53.4736 59.3521C53.4444 59.4774 53.3997 59.5987 53.3406 59.713C53.2418 59.941 53.0898 60.264 52.8998 60.663C52.7098 61.062 52.4742 61.5333 52.1968 62.0539C51.9056 62.6247 51.5729 63.1734 51.2012 63.6954L51.0758 63.8665L51.0264 63.6575L51.0074 63.57C50.6958 62.2438 50.426 61.0392 50.2474 60.15L50.369 60.1804C50.1042 60.4334 49.8124 60.6564 49.4988 60.8454C49.2936 60.9936 49.1986 61.1 49.1872 61.0886C49.1758 61.0772 49.2518 60.9595 49.4494 60.7847C49.7395 60.5747 50.0116 60.3408 50.2626 60.0854L50.35 59.9829L50.388 60.1158C50.6084 60.986 50.901 62.1868 51.2126 63.513V63.6004L51.0378 63.5625C51.4021 63.0482 51.7333 62.5113 52.0296 61.955L52.7668 60.5908L53.2646 59.6675C53.3209 59.554 53.3911 59.4481 53.4736 59.3521Z" fill="#263238"/>
<path d="M44.9236 61.1002C44.9236 61.1002 43.8558 74.9702 43.5784 76.7562C43.301 78.5422 44.251 106.499 44.251 106.499L50.4982 106.902C50.4982 106.902 50.5628 83.8166 50.4982 83.657C50.4336 83.4974 50.5286 67.3588 50.5286 67.3588L49.1112 60.9292L46.6944 63.7906L44.9236 61.1002Z" fill="white"/>
<path d="M51.8966 74.2858C51.8966 74.3162 51.6762 74.3656 51.566 74.6658C51.5339 74.7464 51.5197 74.833 51.5243 74.9196C51.5289 75.0061 51.5522 75.0907 51.5926 75.1674C51.6505 75.2519 51.7328 75.3168 51.8285 75.3534C51.9242 75.3901 52.0288 75.3968 52.1284 75.3726C52.2299 75.3611 52.3253 75.3184 52.4016 75.2503C52.4778 75.1822 52.531 75.0922 52.554 74.9926C52.565 74.9066 52.5571 74.8191 52.5308 74.7365C52.5046 74.6538 52.4606 74.5778 52.402 74.5138C52.281 74.3921 52.126 74.3099 51.9574 74.2782C51.9574 74.2782 52.0068 74.2402 52.1094 74.2402C52.2525 74.2555 52.3863 74.3184 52.4894 74.4188C52.5723 74.4946 52.6365 74.5886 52.6767 74.6935C52.717 74.7984 52.7322 74.9112 52.7212 75.023C52.6904 75.1604 52.6198 75.2858 52.5184 75.3834C52.4169 75.481 52.289 75.5467 52.1505 75.5722C52.012 75.5977 51.8691 75.582 51.7395 75.5269C51.6099 75.4718 51.4993 75.3798 51.4216 75.2624C51.3705 75.1617 51.3439 75.0504 51.3439 74.9375C51.3439 74.8246 51.3705 74.7133 51.4216 74.6126C51.4839 74.4786 51.5916 74.371 51.7256 74.3086C51.8358 74.2668 51.8928 74.2744 51.8966 74.2858Z" fill="#263238"/>
<path d="M51.8966 86.3929C51.8966 86.4233 51.6762 86.4765 51.566 86.7729C51.5339 86.8534 51.5197 86.94 51.5243 87.0266C51.5289 87.1132 51.5522 87.1977 51.5926 87.2745C51.6539 87.3553 51.7365 87.4174 51.8311 87.454C51.9257 87.4905 52.0286 87.5001 52.1283 87.4816C52.2281 87.4631 52.3207 87.4172 52.3958 87.3491C52.471 87.281 52.5258 87.1933 52.554 87.0959C52.5653 87.0098 52.5575 86.9223 52.5312 86.8396C52.5049 86.7568 52.4608 86.6809 52.402 86.6171C52.1892 86.3777 51.9536 86.4119 51.9574 86.3777C51.9612 86.3435 52.0068 86.3397 52.1094 86.3435C52.2522 86.3568 52.3863 86.4185 52.4894 86.5183C52.5717 86.5945 52.6353 86.6887 52.6755 86.7934C52.7157 86.8982 52.7313 87.0107 52.7212 87.1225C52.6904 87.2599 52.6199 87.3852 52.5184 87.4828C52.4169 87.5805 52.289 87.6461 52.1505 87.6716C52.012 87.6972 51.8691 87.6814 51.7395 87.6263C51.6099 87.5712 51.4993 87.4793 51.4216 87.3619C51.3705 87.2619 51.3439 87.1512 51.3439 87.0389C51.3439 86.9266 51.3705 86.8159 51.4216 86.7159C51.4839 86.5819 51.5916 86.4742 51.7256 86.4119C51.8358 86.3739 51.8928 86.3853 51.8966 86.3929Z" fill="#263238"/>
<path d="M52.44 101.038C52.44 101.068 52.2196 101.121 52.1094 101.418C52.0774 101.498 52.0631 101.585 52.0677 101.672C52.0723 101.758 52.0956 101.843 52.136 101.919C52.1973 102 52.2799 102.062 52.3745 102.099C52.4691 102.136 52.5721 102.145 52.6718 102.127C52.7715 102.108 52.8641 102.062 52.9393 101.994C53.0144 101.926 53.0692 101.838 53.0974 101.741C53.1087 101.655 53.1009 101.567 53.0746 101.485C53.0484 101.402 53.0043 101.326 52.9454 101.262C52.7326 101.023 52.497 101.057 52.5008 101.023C52.5046 100.988 52.5502 100.985 52.6528 100.988C52.796 101.001 52.9304 101.062 53.0328 101.163C53.1165 101.239 53.1814 101.333 53.2223 101.437C53.2632 101.542 53.279 101.655 53.2684 101.767C53.2383 101.906 53.1679 102.032 53.0661 102.131C52.9643 102.229 52.8357 102.295 52.6964 102.321C52.5571 102.347 52.4133 102.33 52.2832 102.275C52.1531 102.219 52.0424 102.126 51.965 102.007C51.9148 101.907 51.8887 101.796 51.8887 101.684C51.8887 101.572 51.9148 101.461 51.965 101.361C52.0273 101.227 52.135 101.119 52.269 101.057C52.3906 101.019 52.44 101.03 52.44 101.038Z" fill="#263238"/>
<g opacity="0.3">
<path d="M60.5492 74.1756C60.4124 73.0698 60.1198 71.9868 60.0476 70.8734C59.9564 69.5434 60.1882 68.2134 59.926 66.8872C59.0216 68.4072 58.8164 70.2198 58.8126 71.9792C58.8088 73.7386 58.9722 75.5056 58.7214 77.246C58.5504 78.4392 58.1628 79.8718 58.0184 81.0688C57.874 82.2658 58.216 82.9232 58.5656 84.7206C59.7702 81.3196 60.99 77.759 60.5492 74.1756Z" fill="black"/>
</g>
<path d="M58.4402 71.3486C59.1578 73.3997 59.3902 75.5891 59.1193 77.7451C58.8483 79.9011 58.0813 81.965 56.8784 83.7746" fill="#7E57C2"/>
<path d="M56.8784 83.7745C56.8442 83.7517 57.2584 83.1513 57.76 82.0949C58.0491 81.4792 58.2955 80.8444 58.4972 80.1949C58.736 79.3929 58.9113 78.5733 59.0216 77.7439C59.1188 76.9129 59.1518 76.0757 59.1204 75.2397C59.0878 74.5573 59.0078 73.878 58.881 73.2067C58.6568 72.0667 58.4022 71.3751 58.4402 71.3599C58.5228 71.5107 58.5891 71.6699 58.6378 71.8349C58.6948 71.9907 58.7594 72.1807 58.8202 72.4049C58.881 72.6291 58.9646 72.8875 59.0178 73.1649C59.1657 73.8417 59.261 74.5291 59.3028 75.2207C59.4036 76.9173 59.1897 78.6179 58.672 80.2367C58.4579 80.8889 58.195 81.524 57.8854 82.1367C57.76 82.4065 57.6194 82.6345 57.5054 82.8359C57.4065 83.011 57.2987 83.181 57.1824 83.3451C57.0966 83.4986 56.9946 83.6425 56.8784 83.7745Z" fill="#263238"/>
<path d="M39.5656 89.6797C39.2988 89.5145 39.0537 89.3166 38.836 89.0907C37.7256 88.0611 36.7512 86.8939 35.9366 85.6175C35.7508 85.362 35.5988 85.0835 35.4844 84.7891C35.6948 85.0255 35.8842 85.2798 36.0506 85.5491C36.3888 86.0165 36.8638 86.6549 37.4262 87.3313C37.9886 88.0077 38.532 88.5853 38.9462 89.0033C39.1712 89.211 39.3784 89.4373 39.5656 89.6797Z" fill="#263238"/>
<path d="M37.0652 90.0787C36.9045 89.8603 36.7765 89.6196 36.6852 89.3643C36.1503 88.1679 35.7673 86.9091 35.5452 85.6175C35.48 85.3529 35.4531 85.0803 35.4654 84.8081C35.5224 84.8081 35.7428 86.0127 36.1874 87.4681C36.632 88.9235 37.1184 90.0597 37.0652 90.0787Z" fill="#263238"/>
<path d="M49.286 82.8398C49.286 82.8664 49.0542 82.7182 48.678 82.57C48.1869 82.3783 47.6594 82.2983 47.1336 82.3358C46.6078 82.3732 46.0969 82.5272 45.638 82.7866C45.2884 82.988 45.1022 83.1666 45.0756 83.1362C45.1984 82.9428 45.3667 82.7823 45.5658 82.6688C46.0277 82.3605 46.5621 82.1785 47.1162 82.1406C47.6694 82.0981 48.2241 82.203 48.7236 82.4446C48.9405 82.5283 49.1337 82.664 49.286 82.8398Z" fill="#263238"/>
<path d="M28.1884 81.9392C28.1884 81.9392 25.3954 84.9792 25.6082 87.0996C25.821 89.22 26.809 93.8864 29.4082 93.7458C32.0074 93.6052 34.39 89.3986 34.7282 86.0622C35.0664 82.7258 34.7282 74.875 34.7282 74.875L31.0004 75.7148L28.1884 81.9392Z" fill="#FFBE9D"/>
<path d="M22.6404 62.4834C24.5708 64.9496 29.355 70.8966 29.355 70.8966L33.858 69.7566C34.0188 69.7164 34.1637 69.6285 34.2736 69.5043C34.3835 69.3802 34.4532 69.2257 34.4736 69.0612C34.4869 68.9536 34.4786 68.8444 34.4492 68.74C34.4199 68.6356 34.37 68.5381 34.3026 68.4532L27.9908 60.4732C27.7553 60.1738 27.4306 59.9572 27.0637 59.8547C26.6968 59.7522 26.3068 59.7692 25.9502 59.9032L23.066 60.9862C22.9245 61.0397 22.7974 61.1256 22.6951 61.237C22.5927 61.3483 22.5178 61.4822 22.4764 61.6277C22.4351 61.7732 22.4284 61.9264 22.4568 62.075C22.4853 62.2236 22.5482 62.3635 22.6404 62.4834Z" fill="#263238"/>
<path d="M33.9948 68.7456C33.8396 68.6193 33.6947 68.4808 33.5616 68.3314C33.2918 68.0502 32.908 67.6436 32.4482 67.1306C31.5286 66.1008 30.2974 64.6378 29.0282 62.9506C28.7128 62.5288 28.4088 62.1146 28.12 61.708C27.8812 61.31 27.5599 60.9679 27.1776 60.7048C26.9919 60.6184 26.7896 60.5737 26.5848 60.5737C26.38 60.5737 26.1777 60.6184 25.992 60.7048L24.928 61.0848L23.3738 61.5978C23.1868 61.6701 22.9934 61.7248 22.7962 61.7612C22.9737 61.669 23.1579 61.5902 23.3472 61.5256L24.8672 60.9518L25.9274 60.5718C26.1308 60.4958 26.3426 60.4448 26.5582 60.4198C26.7991 60.3999 27.0406 60.45 27.2536 60.5642C27.6649 60.8348 28.0113 61.193 28.2682 61.613L29.1764 62.8518C30.438 64.5352 31.6464 66.0058 32.5394 67.0546C32.9688 67.56 33.3298 67.978 33.6034 68.2972C33.7456 68.436 33.8765 68.5859 33.9948 68.7456Z" fill="#455A64"/>
<path d="M25.1978 61.6548C25.2653 61.6215 25.3413 61.6091 25.4159 61.6191C25.4906 61.6291 25.5606 61.661 25.617 61.7109C25.6735 61.7607 25.7139 61.8262 25.733 61.899C25.7522 61.9719 25.7493 62.0488 25.7247 62.1199C25.7 62.1911 25.6548 62.2534 25.5948 62.2988C25.5347 62.3442 25.4625 62.3708 25.3873 62.3751C25.3121 62.3794 25.2373 62.3613 25.1725 62.323C25.1076 62.2847 25.0556 62.2281 25.023 62.1602C24.9796 62.0699 24.9737 61.9662 25.0064 61.8715C25.0391 61.7769 25.1079 61.699 25.1978 61.6548Z" fill="white"/>
<path d="M29.0586 67.047L26.9762 67.3928L26.2162 68.0768C26.1088 68.1696 26.0261 68.2876 25.9757 68.4203C25.9253 68.553 25.9087 68.6961 25.9274 68.8368C25.9866 69.2113 26.1499 69.5616 26.3986 69.8476C26.6668 70.1806 26.9701 70.4838 27.303 70.752C27.303 70.752 26.5734 71.9376 27.7058 72.538C27.7058 72.538 27.6298 73.7654 28.8192 73.8908C28.8192 73.8908 29.165 75.0574 30.0618 75.122L30.9852 76.0378L30.704 76.5964L34.8346 76.7256C34.8555 75.6237 34.8009 74.5217 34.6712 73.4272C34.601 72.9818 34.493 72.5432 34.3482 72.1162C34.5572 70.9534 33.687 70.467 33.554 70.5506C33.554 70.5506 35.5262 70.0338 35.2754 68.6772L33.3754 69.1636L29.906 69.8856L32.1328 68.3998C32.2432 68.2985 32.3402 68.1836 32.4216 68.0578C32.6116 67.7576 32.8928 67.2142 32.6534 66.895C32.5508 66.762 29.8148 67.9058 29.8148 67.9058L28.12 69.4676L27.588 68.7076C27.588 68.7076 29.3322 68.3504 29.0586 67.047Z" fill="#FFBE9D"/>
<path d="M33.82 70.5656C33.82 70.6264 33.0866 70.729 32.2088 70.9874C31.331 71.2458 30.647 71.546 30.6204 71.4928C31.0763 71.1633 31.5929 70.927 32.1404 70.7974C32.679 70.6084 33.2502 70.5296 33.82 70.5656Z" fill="#EB996E"/>
<path d="M32.8662 74.1418C33.1145 73.9159 33.3445 73.6707 33.554 73.4084L33.6262 73.3134L33.6756 73.4236C33.7439 73.5689 33.8647 73.683 34.0138 73.7428C34.0921 73.7819 34.1794 73.7997 34.2668 73.7944C34.3542 73.7891 34.4386 73.7608 34.5116 73.7124C34.5432 73.688 34.5666 73.6546 34.5788 73.6166C34.591 73.5786 34.5914 73.5378 34.58 73.4996L34.523 73.1576C34.4945 72.9199 34.4475 72.6849 34.3824 72.4546C34.3512 72.3568 34.2892 72.2717 34.2056 72.2121C34.1221 72.1525 34.0214 72.1216 33.9188 72.124C33.704 72.1333 33.4917 72.173 33.288 72.2418L32.1746 72.5154C31.8358 72.6145 31.4885 72.6819 31.1372 72.7168C31.4611 72.5749 31.7967 72.4617 32.1404 72.3786L33.2348 72.067C33.4566 71.9851 33.6901 71.9389 33.9264 71.9302C34.0616 71.9331 34.1933 71.9739 34.3064 72.048C34.4213 72.1338 34.5085 72.2514 34.5572 72.3862C34.6259 72.6289 34.6755 72.8767 34.7054 73.1272C34.7054 73.245 34.7396 73.3628 34.7586 73.4768C34.7726 73.5477 34.7661 73.621 34.7398 73.6883C34.7136 73.7557 34.6687 73.8141 34.6104 73.8568C34.5113 73.9228 34.3963 73.9611 34.2774 73.9678C34.1585 73.9744 34.0399 73.9492 33.934 73.8948C33.7602 73.807 33.6249 73.6582 33.554 73.4768H33.6718C33.5128 73.676 33.3259 73.8513 33.117 73.9974C32.9612 74.1 32.8738 74.1532 32.8662 74.1418Z" fill="#EB996E"/>
<path d="M29.2144 68.3999C28.9394 68.829 28.6293 69.2344 28.2872 69.6121C27.9986 70.0319 27.6744 70.426 27.3182 70.7901C27.5112 70.3176 27.7823 69.8809 28.12 69.4981C28.417 69.0703 28.7876 68.6984 29.2144 68.3999Z" fill="#EB996E"/>
<path d="M30.0732 69.8325C30.0732 69.8895 29.64 70.0263 29.3132 70.4709C29.1423 70.7532 29.0142 71.0592 28.9332 71.3791C28.9066 71.3791 28.8686 71.2651 28.8762 71.0675C28.8996 70.8099 28.9921 70.5635 29.1439 70.3541C29.2957 70.1448 29.5012 69.9803 29.7388 69.8781C29.944 69.8097 30.0656 69.8097 30.0732 69.8325Z" fill="#EB996E"/>
<path d="M52.364 39.2198C52.0448 38.3838 52.1702 37.4528 52.0448 36.5598C51.7712 34.6104 50.2018 33.0448 48.3854 32.281C46.6944 31.5742 44.631 31.7262 42.5942 32.3798C41.1794 32.8071 39.9154 33.6282 38.95 34.7472C38.3348 35.5061 37.9102 36.4013 37.7119 37.3579C37.5135 38.3146 37.5472 39.3048 37.81 40.2458L47.7888 38.8056C48.7198 39.5656 49.6888 40.3674 50.8098 40.8006C51.1364 40.9461 51.4953 41.0037 51.851 40.9678C52.025 40.9439 52.1887 40.8713 52.3232 40.7583C52.4577 40.6453 52.5574 40.4966 52.611 40.3294C52.725 39.9532 52.5046 39.5846 52.364 39.2198Z" fill="#263238"/>
<path d="M46.1624 31.783C48.3474 31.403 50.2664 32.258 52.1056 33.493C53.9422 34.7621 55.3465 36.5628 56.1298 38.6534C56.9696 40.8308 57.1824 43.9734 56.5098 46.2192C56.2198 47.2736 55.6793 48.2424 54.9343 49.0429C54.1893 49.8435 53.2619 50.4522 52.231 50.8172C49.229 51.8812 45.771 51.7482 43.2174 49.8254C40.6638 47.9026 39.2274 44.722 39.1096 41.5376C38.9976 39.3272 39.5839 37.1376 40.7854 35.279C41.3909 34.3599 42.179 33.5752 43.1008 32.9737C44.0226 32.3723 45.0582 31.967 46.1434 31.783" fill="#263238"/>
<path d="M42.693 55.5443L42.7728 57.3227L46.6944 64.2577L52.3944 56.9617L52.5882 38.7217C52.5805 38.3141 52.42 37.9243 52.1385 37.6294C51.857 37.3345 51.475 37.1561 51.0682 37.1295L42.3624 35.2713C39.5884 35.0851 37.8784 38.5545 37.8024 41.3513C37.7264 44.4407 37.7492 48.2141 38.1824 50.4979C39.0906 55.0921 42.655 55.5481 42.655 55.5481" fill="#FFBE9D"/>
<path d="M39.0716 45.178C39.0746 45.3329 39.1385 45.4804 39.2494 45.5885C39.3604 45.6966 39.5095 45.7566 39.6644 45.7556C39.7402 45.7586 39.8158 45.7465 39.8869 45.72C39.958 45.6934 40.023 45.6529 40.0782 45.6009C40.1334 45.5489 40.1777 45.4863 40.2084 45.417C40.2392 45.3476 40.2557 45.2728 40.2572 45.197C40.2513 45.0434 40.1864 44.898 40.076 44.7911C39.9655 44.6842 39.8181 44.6241 39.6644 44.6232C39.5888 44.6196 39.5132 44.6312 39.4422 44.6574C39.3711 44.6835 39.3061 44.7236 39.2508 44.7754C39.1955 44.8271 39.1512 44.8894 39.1204 44.9585C39.0896 45.0277 39.073 45.1023 39.0716 45.178Z" fill="#263238"/>
<path d="M38.7144 43.13C38.7904 43.206 39.2274 42.8564 39.8544 42.8336C40.4814 42.8108 40.9716 43.111 41.0362 43.0312C41.1008 42.9514 40.9906 42.8602 40.7778 42.7196C40.4958 42.5368 40.1634 42.4477 39.8278 42.465C39.4964 42.4756 39.177 42.5914 38.9158 42.7956C38.7372 42.94 38.6764 43.0958 38.7144 43.13Z" fill="#263238"/>
<path d="M44.859 45.0676C44.863 45.2229 44.9277 45.3703 45.0393 45.4784C45.1508 45.5864 45.3003 45.6463 45.4556 45.6452C45.5309 45.6483 45.6061 45.6363 45.6767 45.6099C45.7473 45.5835 45.8119 45.5433 45.8667 45.4917C45.9216 45.44 45.9656 45.3779 45.9961 45.309C46.0267 45.2401 46.0432 45.1658 46.0446 45.0904C46.0416 44.9356 45.9777 44.7881 45.8668 44.68C45.7558 44.5719 45.6067 44.5118 45.4518 44.5128C45.3762 44.5093 45.3006 44.5209 45.2296 44.547C45.1586 44.5732 45.0935 44.6133 45.0382 44.665C44.9829 44.7167 44.9386 44.779 44.9078 44.8482C44.877 44.9173 44.8604 44.992 44.859 45.0676Z" fill="#263238"/>
<path d="M44.7716 42.9816C44.8476 43.0576 45.2846 42.708 45.9116 42.6852C46.5386 42.6624 47.0516 42.9664 47.0972 42.8828C47.1428 42.7992 47.0516 42.7118 46.8388 42.5712C46.5568 42.3884 46.2244 42.2993 45.8888 42.3166C45.5574 42.3272 45.238 42.4429 44.9768 42.6472C44.7944 42.8068 44.7336 42.9398 44.7716 42.9816Z" fill="#263238"/>
<path d="M42.8488 47.8304C42.5093 47.7379 42.1595 47.6881 41.8076 47.6822C41.6442 47.6822 41.4884 47.6442 41.458 47.534C41.4369 47.3663 41.4688 47.1963 41.5492 47.0476L41.9824 45.7898C42.5866 44 43.016 42.5294 42.9438 42.5066C42.8716 42.4838 42.3244 43.9126 41.7202 45.7062L41.306 46.9716C41.2121 47.1722 41.1906 47.3992 41.2452 47.6138C41.2718 47.6699 41.3105 47.7194 41.3584 47.7588C41.4064 47.7982 41.4624 47.8266 41.5226 47.8418C41.6135 47.8626 41.7068 47.8716 41.8 47.8684C42.1497 47.9021 42.5024 47.8893 42.8488 47.8304Z" fill="#263238"/>
<path d="M42.693 55.5442C44.8756 55.3978 46.9849 54.6982 48.8224 53.5112C48.8224 53.5112 47.386 56.7678 42.7424 56.5094L42.693 55.5442Z" fill="#EB996E"/>
<path d="M43.339 49.202C43.4548 49.0747 43.6008 48.9787 43.7635 48.9229C43.9263 48.8671 44.1005 48.8533 44.27 48.8828C44.3915 48.8942 44.5084 48.9347 44.6109 49.0008C44.7134 49.0669 44.7985 49.1568 44.859 49.2628C44.9467 49.3911 44.9983 49.5406 45.0083 49.6957C45.0183 49.8509 44.9864 50.0058 44.916 50.1444C44.8189 50.2641 44.6876 50.3516 44.5397 50.395C44.3917 50.4384 44.234 50.4358 44.0876 50.3876C43.8115 50.3245 43.5523 50.2027 43.3276 50.0304C43.2551 49.9603 43.2049 49.8704 43.1832 49.772C43.168 49.6705 43.1758 49.567 43.2061 49.4689C43.2364 49.3709 43.2883 49.281 43.358 49.2058" fill="#EB996E"/>
<path d="M44.8096 41.4884C44.878 41.6594 45.5126 41.553 46.2612 41.6176C47.0098 41.6822 47.6292 41.8608 47.7204 41.7012C47.7622 41.6252 47.652 41.4656 47.4012 41.3212C47.0699 41.123 46.6959 41.007 46.3106 40.983C45.9218 40.9507 45.5309 41.0119 45.1706 41.1616C44.9122 41.2642 44.7792 41.42 44.8096 41.4884Z" fill="#263238"/>
<path d="M38.7942 40.3331C38.912 40.4737 39.3452 40.3065 39.8734 40.2799C40.4016 40.2533 40.8538 40.3407 40.9488 40.1849C40.9906 40.1127 40.9146 39.9683 40.717 39.8391C40.4478 39.6844 40.1387 39.613 39.8289 39.634C39.5191 39.6549 39.2225 39.7673 38.9766 39.9569C38.798 40.1127 38.76 40.2799 38.7942 40.3331Z" fill="#263238"/>
<path d="M53.96 37.8782C53.0594 35.2182 49.1226 31.6044 46.3296 31.8514L41.9178 34.6102C42.0771 35.369 42.4383 36.0707 42.9633 36.6413C43.4884 37.2118 44.1578 37.63 44.9008 37.8516C45.695 38.0758 46.645 38.1252 47.1276 38.794C47.6102 39.4628 47.3594 40.4926 47.8192 41.1994C48.4538 42.1798 50.141 42.1 50.6274 43.164C50.8364 43.6276 50.7414 44.1862 50.9618 44.6498C51.2544 45.2616 52.8352 46.0178 53.4812 45.7898C54.1272 45.5618 54.1044 44.4674 54.3058 43.8898C54.56 43.2326 54.5801 42.508 54.3628 41.8378C54.0588 40.542 54.3932 39.1398 53.96 37.8782Z" fill="#263238"/>
<path d="M51.5812 46.3824C51.5812 46.0366 51.9384 45.212 52.2766 45.1436C53.1772 44.9688 54.815 44.9802 54.9366 47.2868C55.0772 50.437 51.8966 49.924 51.8738 49.8366C51.851 49.7492 51.623 47.5718 51.5812 46.3824Z" fill="#FFBE9D"/>
<path d="M52.7668 48.5978C52.7668 48.5978 52.8238 48.6358 52.915 48.6738C52.9806 48.7011 53.051 48.7151 53.1221 48.7151C53.1932 48.7151 53.2636 48.7011 53.3292 48.6738C53.656 48.537 53.9106 47.9974 53.903 47.4312C53.9005 47.1604 53.8355 46.8938 53.713 46.6522C53.6802 46.5549 53.6238 46.4672 53.5489 46.3969C53.474 46.3266 53.3828 46.276 53.2836 46.2494C53.2197 46.2345 53.1525 46.2427 53.0941 46.2726C53.0356 46.3025 52.9897 46.3522 52.9644 46.4128C52.9264 46.504 52.9644 46.5648 52.934 46.5686C52.9036 46.5724 52.8618 46.5192 52.8846 46.39C52.8966 46.3101 52.9371 46.2372 52.9986 46.1848C53.0828 46.1162 53.1906 46.0835 53.2988 46.0936C53.4294 46.1128 53.5527 46.1656 53.6566 46.2469C53.7606 46.3282 53.8415 46.4351 53.8916 46.5572C54.0375 46.8245 54.117 47.123 54.1234 47.4274C54.1234 48.062 53.8308 48.67 53.3634 48.822C53.28 48.8503 53.1913 48.8595 53.1038 48.849C53.0163 48.8385 52.9323 48.8085 52.858 48.7612C52.7744 48.6738 52.7554 48.6054 52.7668 48.5978Z" fill="#EB996E"/>
<path d="M56.8176 42.0734C56.9129 41.7675 56.9541 41.4473 56.9392 41.1272C56.9477 39.5693 56.434 38.0535 55.48 36.8218C55.2986 36.5589 55.0737 36.3289 54.815 36.1416C54.7542 36.1796 55.8106 37.2284 56.3654 38.9194C56.6777 39.9412 56.8302 41.0051 56.8176 42.0734Z" fill="#7E57C2"/>
<path d="M42.8374 33.6602C42.5448 34.9408 40.5954 36.5824 39.7366 37.5818C38.1026 39.4818 37.7948 39.763 37.8062 45.5048C36.9607 43.7225 36.5134 41.7775 36.4952 39.8048C36.5334 38.1275 37.1835 36.5219 38.323 35.2904C38.8973 34.6871 39.6043 34.2259 40.3879 33.9436C41.1716 33.6613 42.0103 33.5656 42.8374 33.664" fill="#263238"/>
<path d="M55.5674 37.8366C55.3952 37.8995 55.2169 37.9441 55.0354 37.9696C54.8606 38.0076 54.6554 38.0494 54.397 38.0798C54.1386 38.1102 53.8612 38.1634 53.542 38.1786C52.7994 38.233 52.0539 38.233 51.3114 38.1786C50.3999 38.1127 49.4952 37.9742 48.6058 37.7644C47.7192 37.5421 46.8524 37.2472 46.0142 36.8828C45.3316 36.5828 44.6724 36.2322 44.042 35.834C43.7646 35.6744 43.5366 35.4996 43.3314 35.3552C43.1526 35.2376 42.9801 35.1108 42.8146 34.9752C42.6668 34.8595 42.5283 34.7325 42.4004 34.5952C42.5625 34.6824 42.7164 34.7842 42.8602 34.8992C43.0008 35.0056 43.1756 35.131 43.3884 35.2792C43.6012 35.4274 43.833 35.5794 44.1104 35.7314C44.7439 36.1109 45.4028 36.4461 46.0826 36.7346C46.9111 37.0948 47.7661 37.3908 48.64 37.62C49.515 37.8269 50.4041 37.9692 51.3 38.0456C52.036 38.1008 52.7748 38.1071 53.5116 38.0646C53.827 38.0646 54.112 38.0152 54.359 37.9962C54.606 37.9772 54.8226 37.943 54.9974 37.9164C55.1849 37.8745 55.3755 37.8478 55.5674 37.8366Z" fill="#455A64"/>
<path d="M55.8942 40.0973C55.7718 40.1426 55.6441 40.172 55.5142 40.1847C55.1788 40.2477 54.8401 40.2909 54.4996 40.3139C52.2341 40.4801 49.9657 40.0324 47.9332 39.0181C47.6262 38.868 47.3281 38.7005 47.0402 38.5165C46.9293 38.4557 46.827 38.3803 46.7362 38.2923C46.7362 38.2657 47.2112 38.5431 47.9902 38.9003C50.0255 39.8359 52.2539 40.2748 54.492 40.1809C55.3622 40.1467 55.8904 40.0631 55.8942 40.0973Z" fill="#455A64"/>
<path d="M56.6922 40.1733C56.7466 40.3268 56.7823 40.4863 56.7986 40.6483C56.848 40.9599 56.8974 41.4083 56.9278 41.9669C56.962 42.6214 56.962 43.2771 56.9278 43.9315C56.8979 44.7356 56.7897 45.5348 56.6048 46.3179C56.2338 47.757 55.369 49.02 54.1614 49.8861C53.7948 50.1365 53.4025 50.3467 52.991 50.5131C52.8447 50.5839 52.6903 50.6362 52.5312 50.6689C52.6678 50.5824 52.8115 50.5074 52.9606 50.4447C53.3529 50.2547 53.728 50.0309 54.0816 49.7759C54.6 49.3926 55.0519 48.9265 55.4192 48.3965C55.8815 47.7568 56.2205 47.0364 56.4186 46.2723C56.5983 45.4995 56.7102 44.7124 56.753 43.9201C56.7986 43.1867 56.8062 42.5255 56.7948 41.9707C56.7834 41.4159 56.7568 40.9675 56.7264 40.6597C56.7005 40.499 56.689 40.3362 56.6922 40.1733Z" fill="#455A64"/>
<path d="M44.1256 50.38C44.2962 50.3817 44.4646 50.3412 44.6158 50.2622C44.6898 50.2167 44.7532 50.1558 44.8017 50.0837C44.8502 50.0116 44.8827 49.9299 44.897 49.8442C44.9141 49.7392 44.9079 49.6317 44.879 49.5293C44.8501 49.4269 44.7992 49.3321 44.7298 49.2514C44.5821 49.093 44.3797 48.9966 44.1636 48.9816C43.9817 48.9707 43.8002 49.0102 43.6392 49.0956C43.358 49.2438 43.2592 49.4262 43.2136 49.4072C43.168 49.3882 43.2706 49.1792 43.567 48.974C43.7454 48.8544 43.9565 48.7933 44.1712 48.7992C44.3048 48.8023 44.4363 48.8325 44.5578 48.888C44.6794 48.9435 44.7883 49.0232 44.878 49.1222C44.9677 49.2249 45.0322 49.347 45.0665 49.4789C45.1008 49.6108 45.1039 49.7489 45.0756 49.8822C45.0548 49.9898 45.0097 50.0912 44.9439 50.1787C44.878 50.2663 44.7931 50.3377 44.6956 50.3876C44.3384 50.5396 44.1066 50.3952 44.1256 50.38Z" fill="#263238"/>
<path d="M63.5626 76.3268L65.2574 72.713C65.5386 71.573 66.6862 71.193 68.0922 71.1018L69.578 70.4938C69.578 70.4938 70.661 68.932 71.6642 68.9738C71.7429 68.9765 71.8187 69.0035 71.8813 69.0512C71.944 69.0988 71.9903 69.1647 72.0138 69.2398C72.0308 69.2909 72.0358 69.3452 72.0286 69.3985C72.0213 69.4519 72.002 69.5029 71.972 69.5476L70.7522 71.4248L69.7794 71.9036C69.7794 71.9036 70.6914 72.124 71.0524 71.7858C71.4134 71.4476 72.6332 70.4824 72.6332 70.4824C72.6332 70.4824 73.5642 68.8066 74.7726 68.932C74.8088 68.9353 74.8437 68.9474 74.874 68.9674C74.9044 68.9874 74.9294 69.0146 74.9467 69.0466C74.964 69.0786 74.9731 69.1143 74.9732 69.1507C74.9734 69.1871 74.9645 69.2229 74.9474 69.255L74.0202 71.0448C74.0202 71.0448 75.7112 68.5026 77.3224 69.4526L75.5364 71.3944C75.5364 71.3944 78.128 69.9238 79.1616 71.155L72.6028 73.8644L68.8218 74.6054L67.4994 78.1926L66.3366 77.52L63.5626 76.3268Z" fill="#FFBE9D"/>
<path d="M67.4918 81.0196C67.4918 81.0196 67.6932 87.4416 66.5076 89.2124C65.322 90.9832 63.118 93.3924 60.3896 91.462L58.6834 85.002C58.6834 85.002 61.4612 81.962 61.9666 80.708C63.2244 77.5958 65.2574 72.728 65.2574 72.728L68.875 74.3392L67.4918 81.0196Z" fill="#FFBE9D"/>
<path d="M62.377 80.1191C62.2651 80.4021 62.1278 80.6743 61.9666 80.9323C61.7006 81.4225 61.3434 82.1065 60.99 82.8817C60.6366 83.6569 60.3516 84.3751 60.1502 84.8995C60.0623 85.19 59.9465 85.4712 59.8044 85.7393C59.84 85.4364 59.9127 85.1391 60.021 84.8539C60.238 84.1535 60.5007 83.468 60.8076 82.8019C61.1131 82.134 61.4596 81.4855 61.845 80.8601C61.9917 80.5925 62.1703 80.3437 62.377 80.1191Z" fill="#EB996E"/>
<path d="M70.7522 71.4058C70.4924 71.6334 70.192 71.81 69.8668 71.9264C69.57 72.1012 69.2423 72.2173 68.9016 72.2684C69.1604 72.0413 69.4594 71.8647 69.7832 71.7478C70.0815 71.5732 70.4104 71.4571 70.7522 71.4058Z" fill="#EB996E"/>
<path d="M71.2956 73.1042C71.2956 73.0776 71.4666 72.9636 71.7744 72.8306L72.3216 72.6064L72.637 72.4734C72.7423 72.4334 72.8353 72.3666 72.9068 72.2796C73.2374 71.8996 73.5072 71.5196 73.7238 71.265C73.9404 71.0104 74.1038 70.8508 74.1228 70.885C74.1012 70.9294 74.0771 70.9725 74.0506 71.0142L73.8378 71.3486C73.5996 71.7204 73.3368 72.0758 73.0512 72.4126C73.0052 72.4654 72.9543 72.5137 72.8992 72.557C72.8421 72.5952 72.7809 72.6271 72.7168 72.652L72.3862 72.7774C72.1772 72.8534 71.9834 72.9104 71.8238 72.9636C71.6541 73.0317 71.4767 73.0789 71.2956 73.1042Z" fill="#EB996E"/>
</svg>
