<svg width="24" height="24" viewBox="0 0 24 24" fill="none" xmlns="http://www.w3.org/2000/svg">
<path d="M11.5 2C6.25333 2 2 6.25333 2 11.5C2 16.747 6.25333 21 11.5 21C16.747 21 21 16.747 21 11.5C21 6.25333 16.747 2 11.5 2ZM11.5 19.8312C6.91655 19.8312 3.1875 16.0835 3.1875 11.5C3.1875 6.91651 6.91655 3.18746 11.5 3.18746C16.0835 3.18746 19.8125 6.91653 19.8125 11.5C19.8125 16.0834 16.0835 19.8312 11.5 19.8312ZM15.2914 8.02389L9.71754 13.6327L7.20747 11.1227C6.97561 10.8908 6.59976 10.8908 6.36761 11.1227C6.13575 11.3545 6.13575 11.7304 6.36761 11.9622L9.30637 14.9013C9.53823 15.1329 9.91408 15.1329 10.1462 14.9013C10.1729 14.8746 10.1958 14.8455 10.2166 14.8152L16.1315 8.86373C16.3631 8.63187 16.3631 8.25603 16.1315 8.02389C15.8994 7.79203 15.5235 7.79203 15.2914 8.02389Z" fill="#088178"/>
</svg>
