<svg width="24" height="25" viewBox="0 0 24 25" fill="none" xmlns="http://www.w3.org/2000/svg">
<path fill-rule="evenodd" clip-rule="evenodd" d="M12.3578 1.90002C10.879 1.90002 9.46079 2.46632 8.41513 3.47433C7.36947 4.48233 6.78202 5.84949 6.78202 7.27502V8.61877H5.38808C5.04491 8.61875 4.7138 8.74076 4.45814 8.96142C4.20248 9.18209 4.04025 9.48591 4.0025 9.81471L2.60856 21.9085C2.587 22.0963 2.60676 22.2863 2.66656 22.4663C2.72636 22.6462 2.82486 22.8119 2.95561 22.9527C3.08636 23.0935 3.24644 23.206 3.42539 23.2831C3.60434 23.3602 3.79814 23.4 3.99414 23.4H20.7214C20.9174 23.4 21.1112 23.3602 21.2902 23.2831C21.4691 23.206 21.6292 23.0935 21.76 22.9527C21.8907 22.8119 21.9892 22.6462 22.049 22.4663C22.1088 22.2863 22.1286 22.0963 22.107 21.9085L20.7131 9.81471C20.6753 9.48591 20.5131 9.18209 20.2574 8.96142C20.0018 8.74076 19.6707 8.61875 19.3275 8.61877H17.9336V7.27502C17.9336 5.84949 17.3461 4.48233 16.3005 3.47433C15.2548 2.46632 13.8366 1.90002 12.3578 1.90002ZM15.1457 8.61877V7.27502C15.1457 6.56225 14.852 5.87868 14.3291 5.37467C13.8063 4.87067 13.0972 4.58752 12.3578 4.58752C11.6184 4.58752 10.9093 4.87067 10.3865 5.37467C9.86363 5.87868 9.56991 6.56225 9.56991 7.27502V8.61877H15.1457ZM6.78202 12.65C6.78202 12.2936 6.92888 11.9519 7.1903 11.6999C7.45171 11.4478 7.80627 11.3063 8.17596 11.3063C8.54566 11.3063 8.90021 11.4478 9.16163 11.6999C9.42304 11.9519 9.56991 12.2936 9.56991 12.65C9.56991 13.0064 9.42304 13.3482 9.16163 13.6002C8.90021 13.8522 8.54566 13.9938 8.17596 13.9938C7.80627 13.9938 7.45171 13.8522 7.1903 13.6002C6.92888 13.3482 6.78202 13.0064 6.78202 12.65ZM16.5396 11.3063C16.1699 11.3063 15.8154 11.4478 15.554 11.6999C15.2925 11.9519 15.1457 12.2936 15.1457 12.65C15.1457 13.0064 15.2925 13.3482 15.554 13.6002C15.8154 13.8522 16.1699 13.9938 16.5396 13.9938C16.9093 13.9938 17.2639 13.8522 17.5253 13.6002C17.7867 13.3482 17.9336 13.0064 17.9336 12.65C17.9336 12.2936 17.7867 11.9519 17.5253 11.6999C17.2639 11.4478 16.9093 11.3063 16.5396 11.3063Z" fill="#9B74BA"/>
</svg>
