<svg width="18" height="19" viewBox="0 0 18 19" fill="none" xmlns="http://www.w3.org/2000/svg">
<path fill-rule="evenodd" clip-rule="evenodd" d="M12.4974 17.5001H5.54914C2.99689 17.5001 1.03889 16.5783 1.59505 12.868L2.24264 7.83966C2.58548 5.98832 3.76638 5.27979 4.80252 5.27979H13.2745C14.3259 5.27979 15.4382 6.04165 15.8344 7.83966L16.4819 12.868C16.9543 16.1593 15.0497 17.5001 12.4974 17.5001Z" stroke="white" stroke-width="1.5" stroke-linecap="round" stroke-linejoin="round"/>
<path d="M12.6118 5.09605C12.6118 3.11003 11.0018 1.50003 9.01578 1.50003C8.05942 1.49599 7.14085 1.87306 6.46317 2.54788C5.7855 3.2227 5.40453 4.13968 5.40454 5.09605" stroke="white" stroke-width="1.5" stroke-linecap="round" stroke-linejoin="round"/>
<path d="M11.4841 8.84473H11.446" stroke="white" stroke-width="1.5" stroke-linecap="round" stroke-linejoin="round"/>
<path d="M6.63111 8.84473H6.59302" stroke="white" stroke-width="1.5" stroke-linecap="round" stroke-linejoin="round"/>
</svg>
