<svg width="12" height="14" viewBox="0 0 12 14" fill="none" xmlns="http://www.w3.org/2000/svg">
<path d="M8.391 3.55268H10.21C10.32 3.55281 10.426 3.5996 10.5076 3.68399C10.5891 3.76837 10.6404 3.88436 10.6514 4.00946L10.9223 7.10537H10.0288L9.80674 4.56773H8.391V6.09031C8.391 6.22492 8.34421 6.35401 8.26093 6.44919C8.17765 6.54437 8.06469 6.59784 7.94691 6.59784C7.82913 6.59784 7.71618 6.54437 7.6329 6.44919C7.54961 6.35401 7.50283 6.22492 7.50283 6.09031V4.56773H3.95014V6.09031C3.95014 6.22492 3.90336 6.35401 3.82008 6.44919C3.73679 6.54437 3.62384 6.59784 3.50606 6.59784C3.38828 6.59784 3.27533 6.54437 3.19204 6.44919C3.10876 6.35401 3.06197 6.22492 3.06197 6.09031V4.56773H1.64534L0.934805 12.6882H5.72649V13.7032H0.443647C0.381621 13.7031 0.320295 13.6882 0.263621 13.6594C0.206947 13.6306 0.156182 13.5885 0.114596 13.536C0.07301 13.4834 0.0415259 13.4214 0.0221719 13.354C0.00281797 13.2867 -0.00397661 13.2155 0.00222606 13.1449L0.80158 4.00946C0.812581 3.88436 0.863822 3.76837 0.945375 3.68399C1.02693 3.5996 1.13299 3.55281 1.243 3.55268H3.06197V3.19843C3.06197 1.43833 4.24857 0 5.72649 0C7.2044 0 8.391 1.43833 8.391 3.19843V3.5537V3.55268ZM7.50283 3.55268V3.19843C7.50283 1.98646 6.7017 1.01505 5.72649 1.01505C4.75127 1.01505 3.95014 1.98646 3.95014 3.19843V3.5537H7.50283V3.55268ZM10.2979 11.1047C10.3384 11.0543 10.3874 11.0138 10.442 10.9856C10.4965 10.9574 10.5555 10.9422 10.6154 10.9407C10.6752 10.9392 10.7347 10.9516 10.7903 10.9771C10.8458 11.0026 10.8963 11.0406 10.9387 11.089C10.981 11.1373 11.0144 11.195 11.0368 11.2584C11.0591 11.3219 11.0701 11.3899 11.0689 11.4583C11.0677 11.5267 11.0544 11.5941 11.0298 11.6565C11.0052 11.7189 10.9699 11.7749 10.9258 11.8213L9.1495 13.8514C9.06622 13.9465 8.95328 14 8.83553 14C8.71777 14 8.60484 13.9465 8.52156 13.8514L6.74522 11.8213C6.7028 11.7745 6.66897 11.7185 6.6457 11.6566C6.62242 11.5946 6.61017 11.528 6.60966 11.4607C6.60915 11.3933 6.62038 11.3264 6.64271 11.2641C6.66504 11.2017 6.69802 11.145 6.73971 11.0974C6.78141 11.0497 6.83099 11.012 6.88557 10.9865C6.94015 10.961 6.99862 10.9481 7.05759 10.9487C7.11655 10.9493 7.17483 10.9633 7.22901 10.9899C7.28319 11.0165 7.33219 11.0552 7.37315 11.1037L8.391 12.2679V8.62794C8.391 8.49334 8.43779 8.36425 8.52107 8.26907C8.60435 8.17389 8.7173 8.12042 8.83508 8.12042C8.95286 8.12042 9.06582 8.17389 9.1491 8.26907C9.23238 8.36425 9.27917 8.49334 9.27917 8.62794V12.2679L10.2979 11.1037V11.1047Z" fill="#242424"/>
</svg>
