<svg width="24" height="25" viewBox="0 0 24 25" fill="none" xmlns="http://www.w3.org/2000/svg">
<path d="M2.75 12C2.75 7.17421 6.67421 3.25 11.5 3.25C16.3258 3.25 20.25 7.17421 20.25 12C20.25 16.8258 16.3258 20.75 11.5 20.75C6.67421 20.75 2.75 16.8258 2.75 12ZM8.5 15H11.5C12.3242 15 13 14.3242 13 13.5C13 12.6758 12.3242 12 11.5 12H14.5C15.3242 12 16 11.3242 16 10.5C16 9.67579 15.3242 9 14.5 9H8.5C7.67579 9 7 9.67579 7 10.5C7 11.3242 7.67579 12 8.5 12C7.67579 12 7 12.6758 7 13.5C7 14.3242 7.67579 15 8.5 15Z" fill="#9B74BA" stroke="#9B74BA" stroke-width="1.5"/>
<mask id="path-2-inside-1_1364_397" fill="white">
<path d="M21.3005 22.4986C21.1205 22.4986 20.9405 22.4286 20.8105 22.2986L18.9505 20.4386C18.6805 20.1686 18.6805 19.7286 18.9505 19.4486C19.2205 19.1786 19.6605 19.1786 19.9405 19.4486L21.8005 21.3086C22.0705 21.5786 22.0705 22.0186 21.8005 22.2986C21.6605 22.4286 21.4805 22.4986 21.3005 22.4986Z"/>
</mask>
<path d="M21.3005 22.4986C21.1205 22.4986 20.9405 22.4286 20.8105 22.2986L18.9505 20.4386C18.6805 20.1686 18.6805 19.7286 18.9505 19.4486C19.2205 19.1786 19.6605 19.1786 19.9405 19.4486L21.8005 21.3086C22.0705 21.5786 22.0705 22.0186 21.8005 22.2986C21.6605 22.4286 21.4805 22.4986 21.3005 22.4986Z" fill="#9B74BA"/>
<path d="M20.8105 22.2986L19.7499 23.3593L20.8105 22.2986ZM18.9505 20.4386L20.0112 19.3779L18.9505 20.4386ZM18.9505 19.4486L17.8899 18.3879L17.8802 18.3976L17.8708 18.4074L18.9505 19.4486ZM19.9405 19.4486L21.0012 18.3879L20.9916 18.3783L20.9818 18.3688L19.9405 19.4486ZM21.8005 21.3086L22.8612 20.2479L21.8005 21.3086ZM21.8005 22.2986L22.8212 23.3978L22.8516 23.3696L22.8803 23.3398L21.8005 22.2986ZM21.3005 20.9986C21.4973 20.9986 21.7053 21.0721 21.8712 21.2379L19.7499 23.3593C20.1757 23.7851 20.7438 23.9986 21.3005 23.9986V20.9986ZM21.8712 21.2379L20.0112 19.3779L17.8899 21.4993L19.7499 23.3593L21.8712 21.2379ZM20.0112 19.3779C20.3374 19.7041 20.3102 20.1995 20.0303 20.4898L17.8708 18.4074C17.0509 19.2577 17.0237 20.6331 17.8899 21.4993L20.0112 19.3779ZM20.0112 20.5093C19.685 20.8355 19.1896 20.8083 18.8993 20.5284L20.9818 18.3688C20.1315 17.5489 18.7561 17.5217 17.8899 18.3879L20.0112 20.5093ZM18.8799 20.5093L20.7399 22.3693L22.8612 20.2479L21.0012 18.3879L18.8799 20.5093ZM20.7399 22.3693C20.4137 22.043 20.4409 21.5476 20.7208 21.2574L22.8803 23.3398C23.7002 22.4895 23.7274 21.1141 22.8612 20.2479L20.7399 22.3693ZM20.7799 21.1994C20.9113 21.0773 21.0938 20.9986 21.3005 20.9986V23.9986C21.8672 23.9986 22.4098 23.7799 22.8212 23.3978L20.7799 21.1994Z" fill="#9B74BA" mask="url(#path-2-inside-1_1364_397)"/>
</svg>
