<svg width="24" height="24" viewBox="0 0 24 24" fill="none" xmlns="http://www.w3.org/2000/svg">
<path fill-rule="evenodd" clip-rule="evenodd" d="M12.5545 5.35485C12.5057 5.24891 12.4275 5.15919 12.3292 5.09631C12.2309 5.03342 12.1167 5 12 5C11.8833 5 11.7691 5.03342 11.6708 5.09631C11.5725 5.15919 11.4943 5.24891 11.4455 5.35485L9.69267 9.15358L5.53911 9.64643C5.42323 9.66012 5.31369 9.70671 5.22346 9.78071C5.13323 9.8547 5.06609 9.953 5.02998 10.064C4.99387 10.1749 4.9903 10.2939 5.01971 10.4068C5.04911 10.5198 5.11025 10.6219 5.19589 10.7012L8.26784 13.541L7.45252 17.6451C7.42988 17.7595 7.44046 17.878 7.48303 17.9866C7.52559 18.0952 7.59835 18.1893 7.69271 18.2579C7.78707 18.3264 7.89909 18.3665 8.01551 18.3734C8.13193 18.3803 8.24789 18.3537 8.34968 18.2968L12 16.2533L15.6503 18.2968C15.7522 18.3539 15.8683 18.3807 15.9849 18.3739C16.1015 18.367 16.2137 18.3269 16.3082 18.2583C16.4027 18.1896 16.4755 18.0953 16.518 17.9865C16.5605 17.8777 16.571 17.7591 16.5481 17.6445L15.7328 13.5417L18.8041 10.7012C18.8898 10.6219 18.9509 10.5198 18.9803 10.4068C19.0097 10.2939 19.0061 10.1749 18.97 10.064C18.9339 9.953 18.8668 9.8547 18.7765 9.78071C18.6863 9.70671 18.5768 9.66012 18.4609 9.64643L14.3067 9.15297L12.5545 5.35485Z" fill="#FFA500"/>
</svg>
