<svg width="20" height="20" viewBox="0 0 20 20" fill="none" xmlns="http://www.w3.org/2000/svg">
<path d="M7.15581 6.86333L9.32081 2.50333C9.38383 2.37715 9.48076 2.27102 9.60072 2.19684C9.72068 2.12267 9.85893 2.08337 9.99997 2.08337C10.141 2.08337 10.2793 2.12267 10.3992 2.19684C10.5192 2.27102 10.6161 2.37715 10.6791 2.50333L12.8441 6.86333L17.6841 7.56666C17.8237 7.58602 17.9551 7.64424 18.0632 7.73467C18.1713 7.8251 18.2518 7.94411 18.2955 8.0781C18.3392 8.21209 18.3444 8.35567 18.3104 8.49245C18.2764 8.62923 18.2046 8.75371 18.1033 8.85166L14.6016 12.2433L15.4283 17.035C15.5341 17.65 14.8841 18.1183 14.3283 17.8283L9.99997 15.565L5.67081 17.8283C5.11581 18.1192 4.46581 17.65 4.57164 17.0342L5.39831 12.2425L1.89664 8.85083C1.7958 8.7528 1.72447 8.62846 1.69078 8.49192C1.65708 8.35538 1.66237 8.21213 1.70603 8.07845C1.7497 7.94476 1.82999 7.82601 1.93778 7.73569C2.04558 7.64536 2.17655 7.58709 2.31581 7.56749L7.15581 6.86333Z" stroke="#242424" stroke-width="1.2" stroke-linecap="round" stroke-linejoin="round"/>
</svg>
