<svg width="14" height="13" viewBox="0 0 14 13" fill="none" xmlns="http://www.w3.org/2000/svg">
<path d="M12.4045 1.58345L12.405 1.58394C13.8656 3.05077 13.8636 5.32894 12.4072 6.78473L12.4071 6.78481L7.00018 12.1918L1.5932 6.78481L1.59313 6.78473C0.136499 5.32872 0.134943 3.05055 1.59255 1.58675L1.59328 1.58602C1.93407 1.24236 2.33947 0.969481 2.78613 0.783098C3.23271 0.596749 3.71172 0.500539 4.19562 0.5C5.10913 0.500096 5.98929 0.843297 6.66175 1.46162L7.00013 1.77277L7.33856 1.46167C8.01112 0.843407 8.89129 0.500206 9.80483 0.5C10.2881 0.500401 10.7666 0.596311 11.2127 0.782217L11.4044 0.322112L11.2127 0.782217C11.6589 0.968153 12.0639 1.24045 12.4045 1.58345Z" fill="white" stroke="#F8A4A4"/>
</svg>
