<svg width="36" height="36" viewBox="0 0 36 36" fill="none" xmlns="http://www.w3.org/2000/svg">
<path d="M21 18.375L16.8 23.625L15 21.5212" stroke="#242424" stroke-width="1.5" stroke-linecap="round" stroke-linejoin="round"/>
<path d="M13.5 14.25V12.75C13.5 11.5565 13.9741 10.4119 14.818 9.56802C15.6619 8.72411 16.8065 8.25 18 8.25C19.1935 8.25 20.3381 8.72411 21.182 9.56802C22.0259 10.4119 22.5 11.5565 22.5 12.75V14.25M9.75 14.25C9.55109 14.25 9.36032 14.329 9.21967 14.4697C9.07902 14.6103 9 14.8011 9 15V25.125C9 26.5425 10.2075 27.75 11.625 27.75H24.375C25.7925 27.75 27 26.6011 27 25.1836V15C27 14.8011 26.921 14.6103 26.7803 14.4697C26.6397 14.329 26.4489 14.25 26.25 14.25H9.75Z" stroke="#242424" stroke-width="1.5" stroke-linecap="round" stroke-linejoin="round"/>
</svg>
