<svg width="24" height="24" viewBox="0 0 24 24" fill="none" xmlns="http://www.w3.org/2000/svg">
<path fill-rule="evenodd" clip-rule="evenodd" d="M15.106 4.3569C15.106 3.69278 15.3373 3.0494 15.7602 2.53735C16.1831 2.02531 16.7712 1.6766 17.4234 1.55117C18.0755 1.42575 18.751 1.53145 19.3337 1.85009C19.9164 2.16874 20.3698 2.68043 20.6161 3.29719C20.8624 3.91394 20.8861 4.59724 20.6832 5.22959C20.4803 5.86194 20.0634 6.40384 19.5042 6.76213C18.9451 7.12042 18.2785 7.27271 17.6192 7.19281C16.9599 7.11292 16.3491 6.80583 15.8917 6.32435L7.87236 10.7802C7.99488 11.2517 7.99488 11.7466 7.87236 12.2181L15.8917 16.674C16.3709 16.1701 17.0175 15.8583 17.7102 15.7971C18.4029 15.7358 19.0941 15.9293 19.6543 16.3413C20.2145 16.7533 20.6052 17.3554 20.7532 18.0349C20.9012 18.7143 20.7963 19.4244 20.4582 20.0321C20.12 20.6397 19.5719 21.1031 18.9165 21.3355C18.261 21.5679 17.5434 21.5532 16.898 21.2943C16.2526 21.0354 15.7238 20.55 15.4108 19.929C15.0977 19.3081 15.0219 18.5943 15.1975 17.9215L7.17813 13.4666C6.78469 13.8808 6.27609 14.1676 5.71802 14.2899C5.15994 14.4121 4.57803 14.3643 4.04744 14.1524C3.51685 13.9406 3.06195 13.5746 2.7415 13.1016C2.42104 12.6286 2.24976 12.0705 2.24976 11.4991C2.24976 10.9278 2.42104 10.3697 2.7415 9.89668C3.06195 9.42371 3.51685 9.05768 4.04744 8.84586C4.57803 8.63404 5.15994 8.58617 5.71802 8.70843C6.27609 8.83069 6.78469 9.11745 7.17813 9.5317L15.1975 5.07588C15.1366 4.84107 15.1059 4.59947 15.106 4.3569Z" fill="white"/>
</svg>
