<svg width="24" height="24" viewBox="0 0 24 24" fill="none" xmlns="http://www.w3.org/2000/svg">
<path fill-rule="evenodd" clip-rule="evenodd" d="M4.6315 2C4.4425 2 4.274 2.131 4.209 2.328L3.055 5.8335C3.01856 5.94436 3 6.06031 3 6.177V7.5715C3 8.36 3.5755 9 4.2855 9C4.9955 9 5.5715 8.36 5.5715 7.5715C5.5715 8.3605 6.147 9 6.857 9C7.567 9 8.143 8.36 8.143 7.5715C8.143 8.3605 8.7185 9 9.4285 9C10.1385 9 10.7135 8.361 10.7145 7.5725C10.7145 8.361 11.29 9 12 9C12.71 9 13.2855 8.36 13.2855 7.5715C13.2855 8.3605 13.8615 9 14.5715 9C15.2815 9 15.8565 8.361 15.857 7.5725C15.8575 8.361 16.433 9 17.143 9C17.853 9 18.4285 8.36 18.4285 7.5715C18.4285 8.3605 19.004 9 19.7145 9C20.4245 9 21 8.36 21 7.5715V6.177C21 6.06031 20.9814 5.94436 20.945 5.8335L19.791 2.3285C19.726 2.131 19.5575 2 19.3685 2H4.6315Z" fill="#555555"/>
<path fill-rule="evenodd" clip-rule="evenodd" d="M5 9.615V13.5H3.75C3.6837 13.5 3.62011 13.5263 3.57322 13.5732C3.52634 13.6201 3.5 13.6837 3.5 13.75V14.25C3.5 14.3163 3.52634 14.3799 3.57322 14.4268C3.62011 14.4737 3.6837 14.5 3.75 14.5H20.25C20.3163 14.5 20.3799 14.4737 20.4268 14.4268C20.4737 14.3799 20.5 14.3163 20.5 14.25V13.75C20.5 13.6837 20.4737 13.6201 20.4268 13.5732C20.3799 13.5263 20.3163 13.5 20.25 13.5H19V9.615C18.7907 9.53159 18.5974 9.41268 18.4285 9.2635C18.2989 9.37782 18.1548 9.47465 18 9.5515V13.5H6V9.5515C5.84519 9.47465 5.70113 9.37782 5.5715 9.2635C5.4035 9.411 5.2115 9.531 5 9.615ZM18 8.6365C18.0425 8.594 18.0825 8.5485 18.12 8.5H18V8.6365ZM18.737 8.5C18.8126 8.59794 18.9011 8.68523 19 8.7595V8.5H18.737ZM5 8.7595C5.09944 8.68581 5.18798 8.59845 5.263 8.5H5V8.7595ZM5.88 8.5H6V8.6365C5.95705 8.59368 5.91696 8.54808 5.88 8.5ZM4.25 15.5C4.1837 15.5 4.12011 15.5263 4.07322 15.5732C4.02634 15.6201 4 15.6837 4 15.75V19.5C4 19.6326 4.05268 19.7598 4.14645 19.8536C4.24021 19.9473 4.36739 20 4.5 20H19.5C19.6326 20 19.7598 19.9473 19.8536 19.8536C19.9473 19.7598 20 19.6326 20 19.5V15.75C20 15.6837 19.9737 15.6201 19.9268 15.5732C19.8799 15.5263 19.8163 15.5 19.75 15.5H4.25Z" fill="#555555"/>
<path d="M8 12.75C8 12.6837 8.02634 12.6201 8.07322 12.5732C8.12011 12.5263 8.1837 12.5 8.25 12.5H9.75C9.8163 12.5 9.87989 12.5263 9.92678 12.5732C9.97366 12.6201 10 12.6837 10 12.75V13.25C10 13.3163 9.97366 13.3799 9.92678 13.4268C9.87989 13.4737 9.8163 13.5 9.75 13.5H8.25C8.1837 13.5 8.12011 13.4737 8.07322 13.4268C8.02634 13.3799 8 13.3163 8 13.25V12.75ZM12 12.75C12 12.9489 11.921 13.1397 11.7803 13.2803C11.6397 13.421 11.4489 13.5 11.25 13.5C11.0511 13.5 10.8603 13.421 10.7197 13.2803C10.579 13.1397 10.5 12.9489 10.5 12.75C10.5 12.5511 10.579 12.3603 10.7197 12.2197C10.8603 12.079 11.0511 12 11.25 12C11.4489 12 11.6397 12.079 11.7803 12.2197C11.921 12.3603 12 12.5511 12 12.75Z" fill="#555555"/>
<path d="M6 17.25C6 17.1837 6.02634 17.1201 6.07322 17.0732C6.12011 17.0263 6.1837 17 6.25 17H7.75C7.8163 17 7.87989 17.0263 7.92678 17.0732C7.97366 17.1201 8 17.1837 8 17.25V18.25C8 18.3163 7.97366 18.3799 7.92678 18.4268C7.87989 18.4737 7.8163 18.5 7.75 18.5H6.25C6.1837 18.5 6.12011 18.4737 6.07322 18.4268C6.02634 18.3799 6 18.3163 6 18.25V17.25Z" fill="#555555"/>
</svg>
