<svg width="36" height="36" viewBox="0 0 36 36" fill="none" xmlns="http://www.w3.org/2000/svg">
<g clip-path="url(#clip0_440_3986)">
<path d="M13.5 27.75C14.3284 27.75 15 27.0784 15 26.25C15 25.4216 14.3284 24.75 13.5 24.75C12.6716 24.75 12 25.4216 12 26.25C12 27.0784 12.6716 27.75 13.5 27.75Z" fill="black"/>
<path d="M23.25 27.75C24.0784 27.75 24.75 27.0784 24.75 26.25C24.75 25.4216 24.0784 24.75 23.25 24.75C22.4216 24.75 21.75 25.4216 21.75 26.25C21.75 27.0784 22.4216 27.75 23.25 27.75Z" fill="black"/>
<path d="M9.96469 12.75H27L24.3262 21.4416C24.2318 21.7482 24.0415 22.0165 23.7833 22.207C23.5252 22.3975 23.2127 22.5002 22.8919 22.5H13.8816C13.5556 22.5001 13.2384 22.3941 12.9781 22.1978C12.7177 22.0016 12.5284 21.7259 12.4388 21.4125L9.04781 9.54375C9.00301 9.38711 8.90842 9.24932 8.77835 9.15122C8.64828 9.05311 8.4898 9.00003 8.32687 9H6.75" stroke="black" stroke-width="1.4" stroke-linecap="round" stroke-linejoin="round"/>
</g>
<defs>
<clipPath id="clip0_440_3986">
<rect width="24" height="24" fill="white" transform="translate(6 6)"/>
</clipPath>
</defs>
</svg>
