<svg width="36" height="36" viewBox="0 0 36 36" fill="none" xmlns="http://www.w3.org/2000/svg">
<path d="M21.39 11.21L22.7999 14.03C22.9899 14.42 23.4999 14.79 23.9299 14.87L26.48 15.29C28.11 15.56 28.49 16.74 27.32 17.92L25.3299 19.91C24.9999 20.24 24.81 20.89 24.92 21.36L25.4899 23.82C25.9399 25.76 24.9 26.52 23.19 25.5L20.7999 24.08C20.3699 23.82 19.65 23.82 19.22 24.08L16.8299 25.5C15.1199 26.51 14.0799 25.76 14.5299 23.82L15.1 21.36C15.21 20.9 15.02 20.25 14.69 19.91L12.7 17.92C11.53 16.75 11.91 15.57 13.54 15.29L16.0899 14.87C16.5199 14.8 17.03 14.42 17.22 14.03L18.63 11.21C19.38 9.68 20.62 9.68 21.39 11.21Z" stroke="#292D32" stroke-width="1.5" stroke-linecap="round" stroke-linejoin="round"/>
<path d="M14 11H8" stroke="#292D32" stroke-width="1.5" stroke-linecap="round" stroke-linejoin="round"/>
<path d="M11 25H8" stroke="#292D32" stroke-width="1.5" stroke-linecap="round" stroke-linejoin="round"/>
<path d="M9 18H8" stroke="#292D32" stroke-width="1.5" stroke-linecap="round" stroke-linejoin="round"/>
</svg>
