<svg width="40" height="40" viewBox="0 0 40 40" fill="none" xmlns="http://www.w3.org/2000/svg">
<rect width="40" height="40" rx="9" fill="#2AABEE"/>
<path d="M9.49285 19.749C15.3241 17.209 19.2116 15.5343 21.1554 14.7253C26.7116 12.415 27.8647 12.0137 28.6178 12.0001C28.7835 11.9975 29.1522 12.0384 29.3929 12.2329C29.5929 12.397 29.6491 12.6189 29.6772 12.7746C29.7022 12.9303 29.7366 13.285 29.7085 13.5618C29.4085 16.7243 28.1054 24.3987 27.4429 27.9409C27.1647 29.4396 26.6116 29.9421 26.0772 29.9912C24.9147 30.0981 24.0335 29.2237 22.9085 28.4865C21.1491 27.3325 20.1554 26.6143 18.446 25.4884C16.471 24.1872 17.7522 23.4718 18.8772 22.3031C19.171 21.9971 24.2897 17.3425 24.3866 16.9203C24.3991 16.8675 24.4116 16.6706 24.2929 16.5668C24.1772 16.4628 24.0054 16.4984 23.8804 16.5265C23.7022 16.5665 20.8929 18.4253 15.4429 22.1025C14.646 22.6506 13.9241 22.9178 13.2741 22.9037C12.5616 22.8884 11.1866 22.5 10.1647 22.1681C8.91473 21.7609 7.91785 21.5456 8.00535 20.854C8.0491 20.494 8.54598 20.1256 9.49285 19.749Z" fill="white"/>
</svg>
