<svg width="24" height="25" viewBox="0 0 24 25" fill="none" xmlns="http://www.w3.org/2000/svg">
<path d="M12 21.4333L11.4808 21.9525C11.5489 22.0208 11.6298 22.075 11.7189 22.112C11.808 22.1489 11.9035 22.168 12 22.168C12.0965 22.168 12.192 22.1489 12.2811 22.112C12.3702 22.075 12.4511 22.0208 12.5192 21.9525L12 21.4333ZM12 6.76664L11.4808 7.28584C11.5489 7.35414 11.6298 7.40832 11.7189 7.44529C11.808 7.48226 11.9035 7.50129 12 7.50129C12.0965 7.50129 12.192 7.48226 12.2811 7.44529C12.3702 7.40832 12.4511 7.35414 12.5192 7.28584L12 6.76664ZM12.5192 20.9141L3.77053 12.1669L2.7336 13.2038L11.4808 21.9525L12.5192 20.9141ZM20.2295 12.1669L11.4808 20.9141L12.5192 21.9525L21.2664 13.2038L20.2295 12.1669ZM10.0669 5.87051L11.4808 7.28584L12.5192 6.24744L11.1039 4.83358L10.0669 5.87051ZM12.5192 7.28584L13.9331 5.87051L12.8961 4.83358L11.4808 6.24744L12.5192 7.28584ZM17.0805 3.09998C15.5112 3.09998 14.0064 3.72331 12.8961 4.83358L13.9331 5.87051C14.768 5.03598 15.9001 4.56702 17.0805 4.56664V3.09998ZM21.5333 9.01944C21.5333 10.2001 21.064 11.3324 20.228 12.1669L21.2664 13.2038C22.3761 12.094 22.9997 10.5889 23 9.01944H21.5333ZM23 9.01944C23 7.4495 22.3763 5.94386 21.2662 4.83375C20.1561 3.72363 18.6505 3.09998 17.0805 3.09998V4.56664C18.2615 4.56664 19.3941 5.03578 20.2291 5.87084C21.0642 6.7059 21.5333 7.83849 21.5333 9.01944H23ZM6.91947 4.56664C8.10013 4.56664 9.2324 5.03598 10.0669 5.87198L11.1039 4.83358C9.99404 3.72384 8.48893 3.10027 6.91947 3.09998V4.56664ZM2.46667 9.01944C2.46667 7.83849 2.9358 6.7059 3.77086 5.87084C4.60592 5.03578 5.73851 4.56664 6.91947 4.56664V3.09998C5.34953 3.09998 3.84389 3.72363 2.73377 4.83375C1.62366 5.94386 1 7.4495 1 9.01944H2.46667ZM3.77053 12.1669C3.35692 11.7537 3.03022 11.2631 2.80625 10.723C2.58228 10.183 2.46689 9.60409 2.46667 9.01944H1C1 10.5888 1.62333 12.0936 2.7336 13.2038L3.77053 12.1669Z" fill="#555555"/>
</svg>
