<svg width="24" height="24" viewBox="0 0 24 24" fill="none" xmlns="http://www.w3.org/2000/svg">
<rect x="2.25" y="5.25" width="19.5" height="13.5" rx="1.75" fill="white" stroke="#F5F5F5" stroke-width="0.5"/>
<mask id="mask0_579_5015" style="mask-type:luminance" maskUnits="userSpaceOnUse" x="2" y="5" width="20" height="14">
<rect x="2.25" y="5.25" width="19.5" height="13.5" rx="1.75" fill="white" stroke="white" stroke-width="0.5"/>
</mask>
<g mask="url(#mask0_579_5015)">
<path fill-rule="evenodd" clip-rule="evenodd" d="M2 9.66667H22V5H2V9.66667Z" fill="#04AAC8"/>
<path fill-rule="evenodd" clip-rule="evenodd" d="M2 19H22V14.3334H2V19Z" fill="#23C840"/>
<path fill-rule="evenodd" clip-rule="evenodd" d="M5.33336 8.73335C5.62713 8.73335 5.90019 8.64645 6.12723 8.49745C6.10093 8.49915 6.07439 8.50002 6.04764 8.50002C5.39016 8.50002 4.85717 7.97768 4.85717 7.33335C4.85717 6.68902 5.39016 6.16668 6.04764 6.16668C6.07439 6.16668 6.10093 6.16755 6.12723 6.16925C5.90019 6.02025 5.62713 5.93335 5.33336 5.93335C4.54438 5.93335 3.90479 6.56015 3.90479 7.33335C3.90479 8.10655 4.54438 8.73335 5.33336 8.73335ZM7.71431 8.26668C7.71431 8.52442 7.50111 8.73335 7.23812 8.73335C6.97513 8.73335 6.76193 8.52442 6.76193 8.26668C6.76193 8.00895 6.97513 7.80002 7.23812 7.80002C7.50111 7.80002 7.71431 8.00895 7.71431 8.26668ZM9.14288 6.86668C9.40587 6.86668 9.61907 6.65775 9.61907 6.40002C9.61907 6.14228 9.40587 5.93335 9.14288 5.93335C8.87989 5.93335 8.66669 6.14228 8.66669 6.40002C8.66669 6.65775 8.87989 6.86668 9.14288 6.86668ZM11.5238 6.40002C11.5238 6.65775 11.3106 6.86668 11.0476 6.86668C10.7846 6.86668 10.5715 6.65775 10.5715 6.40002C10.5715 6.14228 10.7846 5.93335 11.0476 5.93335C11.3106 5.93335 11.5238 6.14228 11.5238 6.40002ZM11.0476 8.73335C11.3106 8.73335 11.5238 8.52442 11.5238 8.26668C11.5238 8.00895 11.3106 7.80002 11.0476 7.80002C10.7846 7.80002 10.5715 8.00895 10.5715 8.26668C10.5715 8.52442 10.7846 8.73335 11.0476 8.73335ZM9.61907 8.26668C9.61907 8.52442 9.40587 8.73335 9.14288 8.73335C8.87989 8.73335 8.66669 8.52442 8.66669 8.26668C8.66669 8.00895 8.87989 7.80002 9.14288 7.80002C9.40587 7.80002 9.61907 8.00895 9.61907 8.26668Z" fill="white"/>
</g>
</svg>
