<svg width="41" height="40" viewBox="0 0 41 40" fill="none" xmlns="http://www.w3.org/2000/svg">
<rect x="0.5" width="40" height="40" rx="9" fill="#088178"/>
<path d="M16.2719 10.4391L17.3489 10.0951C18.3569 9.77305 19.4349 10.2941 19.8669 11.3121L20.7269 13.3401C21.1019 14.2231 20.8939 15.2621 20.2129 15.9081L18.3199 17.7061C18.4369 18.7821 18.7979 19.8411 19.4039 20.8831C19.9798 21.8912 20.752 22.7736 21.6749 23.4781L23.9509 22.7181C24.8129 22.4311 25.7519 22.7621 26.2809 23.5391L27.5129 25.3491C28.1289 26.2531 28.0179 27.4991 27.2549 28.2651L26.4369 29.0861C25.6229 29.9031 24.4609 30.2001 23.3849 29.8641C20.8459 29.0721 18.5119 26.7211 16.3819 22.8111C14.2489 18.8951 13.4969 15.5711 14.1239 12.8431C14.3879 11.6951 15.2059 10.7801 16.2739 10.4391H16.2719Z" fill="white"/>
</svg>
